G04 (created by PCBNEW (22-Jun-2014 BZR 4027)-stable) date Sun 09 Jul 2017 12:49:04 PM CDT*
%MOIN*%
G04 Gerber Fmt 3.4, Leading zero omitted, Abs format*
%FSLAX34Y34*%
G01*
G70*
G90*
G04 APERTURE LIST*
%ADD10C,0.00590551*%
%ADD11C,0.008*%
G04 APERTURE END LIST*
G54D10*
G54D11*
X105583Y-50395D02*
X105583Y-50719D01*
X105602Y-50757D01*
X105621Y-50776D01*
X105659Y-50795D01*
X105716Y-50795D01*
X105754Y-50776D01*
X105583Y-50642D02*
X105621Y-50661D01*
X105697Y-50661D01*
X105735Y-50642D01*
X105754Y-50623D01*
X105773Y-50585D01*
X105773Y-50471D01*
X105754Y-50433D01*
X105735Y-50414D01*
X105697Y-50395D01*
X105621Y-50395D01*
X105583Y-50414D01*
X105392Y-50661D02*
X105392Y-50395D01*
X105392Y-50261D02*
X105411Y-50280D01*
X105392Y-50300D01*
X105373Y-50280D01*
X105392Y-50261D01*
X105392Y-50300D01*
X105259Y-50395D02*
X105107Y-50395D01*
X105202Y-50261D02*
X105202Y-50604D01*
X105183Y-50642D01*
X105145Y-50661D01*
X105107Y-50661D01*
X104973Y-50661D02*
X104973Y-50261D01*
X104802Y-50661D02*
X104802Y-50452D01*
X104821Y-50414D01*
X104859Y-50395D01*
X104916Y-50395D01*
X104954Y-50414D01*
X104973Y-50433D01*
X104440Y-50395D02*
X104440Y-50661D01*
X104611Y-50395D02*
X104611Y-50604D01*
X104592Y-50642D01*
X104554Y-50661D01*
X104497Y-50661D01*
X104459Y-50642D01*
X104440Y-50623D01*
X104249Y-50661D02*
X104249Y-50261D01*
X104249Y-50414D02*
X104211Y-50395D01*
X104135Y-50395D01*
X104097Y-50414D01*
X104078Y-50433D01*
X104059Y-50471D01*
X104059Y-50585D01*
X104078Y-50623D01*
X104097Y-50642D01*
X104135Y-50661D01*
X104211Y-50661D01*
X104249Y-50642D01*
X103888Y-50623D02*
X103869Y-50642D01*
X103888Y-50661D01*
X103907Y-50642D01*
X103888Y-50623D01*
X103888Y-50661D01*
X103526Y-50642D02*
X103564Y-50661D01*
X103640Y-50661D01*
X103678Y-50642D01*
X103697Y-50623D01*
X103716Y-50585D01*
X103716Y-50471D01*
X103697Y-50433D01*
X103678Y-50414D01*
X103640Y-50395D01*
X103564Y-50395D01*
X103526Y-50414D01*
X103297Y-50661D02*
X103335Y-50642D01*
X103354Y-50623D01*
X103373Y-50585D01*
X103373Y-50471D01*
X103354Y-50433D01*
X103335Y-50414D01*
X103297Y-50395D01*
X103240Y-50395D01*
X103202Y-50414D01*
X103183Y-50433D01*
X103164Y-50471D01*
X103164Y-50585D01*
X103183Y-50623D01*
X103202Y-50642D01*
X103240Y-50661D01*
X103297Y-50661D01*
X102992Y-50661D02*
X102992Y-50395D01*
X102992Y-50433D02*
X102973Y-50414D01*
X102935Y-50395D01*
X102878Y-50395D01*
X102840Y-50414D01*
X102821Y-50452D01*
X102821Y-50661D01*
X102821Y-50452D02*
X102802Y-50414D01*
X102764Y-50395D01*
X102707Y-50395D01*
X102669Y-50414D01*
X102649Y-50452D01*
X102649Y-50661D01*
X102173Y-50242D02*
X102516Y-50757D01*
X102040Y-50395D02*
X102040Y-50795D01*
X102040Y-50414D02*
X102002Y-50395D01*
X101926Y-50395D01*
X101888Y-50414D01*
X101869Y-50433D01*
X101849Y-50471D01*
X101849Y-50585D01*
X101869Y-50623D01*
X101888Y-50642D01*
X101926Y-50661D01*
X102002Y-50661D01*
X102040Y-50642D01*
X101526Y-50642D02*
X101564Y-50661D01*
X101640Y-50661D01*
X101678Y-50642D01*
X101697Y-50604D01*
X101697Y-50452D01*
X101678Y-50414D01*
X101640Y-50395D01*
X101564Y-50395D01*
X101526Y-50414D01*
X101507Y-50452D01*
X101507Y-50490D01*
X101697Y-50528D01*
X101335Y-50395D02*
X101335Y-50795D01*
X101335Y-50414D02*
X101297Y-50395D01*
X101221Y-50395D01*
X101183Y-50414D01*
X101164Y-50433D01*
X101145Y-50471D01*
X101145Y-50585D01*
X101164Y-50623D01*
X101183Y-50642D01*
X101221Y-50661D01*
X101297Y-50661D01*
X101335Y-50642D01*
X100802Y-50661D02*
X100802Y-50452D01*
X100821Y-50414D01*
X100859Y-50395D01*
X100935Y-50395D01*
X100973Y-50414D01*
X100802Y-50642D02*
X100840Y-50661D01*
X100935Y-50661D01*
X100973Y-50642D01*
X100992Y-50604D01*
X100992Y-50566D01*
X100973Y-50528D01*
X100935Y-50509D01*
X100840Y-50509D01*
X100802Y-50490D01*
X100630Y-50642D02*
X100592Y-50661D01*
X100516Y-50661D01*
X100478Y-50642D01*
X100459Y-50604D01*
X100459Y-50585D01*
X100478Y-50547D01*
X100516Y-50528D01*
X100573Y-50528D01*
X100611Y-50509D01*
X100630Y-50471D01*
X100630Y-50452D01*
X100611Y-50414D01*
X100573Y-50395D01*
X100516Y-50395D01*
X100478Y-50414D01*
X100230Y-50661D02*
X100269Y-50642D01*
X100288Y-50604D01*
X100288Y-50261D01*
X99907Y-50661D02*
X99907Y-50452D01*
X99926Y-50414D01*
X99964Y-50395D01*
X100040Y-50395D01*
X100078Y-50414D01*
X99907Y-50642D02*
X99945Y-50661D01*
X100040Y-50661D01*
X100078Y-50642D01*
X100097Y-50604D01*
X100097Y-50566D01*
X100078Y-50528D01*
X100040Y-50509D01*
X99945Y-50509D01*
X99907Y-50490D01*
X99716Y-50661D02*
X99716Y-50261D01*
X99716Y-50414D02*
X99678Y-50395D01*
X99602Y-50395D01*
X99564Y-50414D01*
X99545Y-50433D01*
X99526Y-50471D01*
X99526Y-50585D01*
X99545Y-50623D01*
X99564Y-50642D01*
X99602Y-50661D01*
X99678Y-50661D01*
X99716Y-50642D01*
X99373Y-50642D02*
X99335Y-50661D01*
X99259Y-50661D01*
X99221Y-50642D01*
X99202Y-50604D01*
X99202Y-50585D01*
X99221Y-50547D01*
X99259Y-50528D01*
X99316Y-50528D01*
X99354Y-50509D01*
X99373Y-50471D01*
X99373Y-50452D01*
X99354Y-50414D01*
X99316Y-50395D01*
X99259Y-50395D01*
X99221Y-50414D01*
X98745Y-50242D02*
X99088Y-50757D01*
X98611Y-50661D02*
X98611Y-50261D01*
X98611Y-50414D02*
X98573Y-50395D01*
X98497Y-50395D01*
X98459Y-50414D01*
X98440Y-50433D01*
X98421Y-50471D01*
X98421Y-50585D01*
X98440Y-50623D01*
X98459Y-50642D01*
X98497Y-50661D01*
X98573Y-50661D01*
X98611Y-50642D01*
X98249Y-50661D02*
X98249Y-50395D01*
X98249Y-50471D02*
X98230Y-50433D01*
X98211Y-50414D01*
X98173Y-50395D01*
X98135Y-50395D01*
X97850Y-50642D02*
X97888Y-50661D01*
X97964Y-50661D01*
X98002Y-50642D01*
X98021Y-50604D01*
X98021Y-50452D01*
X98002Y-50414D01*
X97964Y-50395D01*
X97888Y-50395D01*
X97850Y-50414D01*
X97830Y-50452D01*
X97830Y-50490D01*
X98021Y-50528D01*
X97488Y-50661D02*
X97488Y-50452D01*
X97507Y-50414D01*
X97545Y-50395D01*
X97621Y-50395D01*
X97659Y-50414D01*
X97488Y-50642D02*
X97526Y-50661D01*
X97621Y-50661D01*
X97659Y-50642D01*
X97678Y-50604D01*
X97678Y-50566D01*
X97659Y-50528D01*
X97621Y-50509D01*
X97526Y-50509D01*
X97488Y-50490D01*
X97126Y-50661D02*
X97126Y-50261D01*
X97126Y-50642D02*
X97164Y-50661D01*
X97240Y-50661D01*
X97278Y-50642D01*
X97297Y-50623D01*
X97316Y-50585D01*
X97316Y-50471D01*
X97297Y-50433D01*
X97278Y-50414D01*
X97240Y-50395D01*
X97164Y-50395D01*
X97126Y-50414D01*
X96935Y-50661D02*
X96935Y-50261D01*
X96935Y-50414D02*
X96897Y-50395D01*
X96821Y-50395D01*
X96783Y-50414D01*
X96764Y-50433D01*
X96745Y-50471D01*
X96745Y-50585D01*
X96764Y-50623D01*
X96783Y-50642D01*
X96821Y-50661D01*
X96897Y-50661D01*
X96935Y-50642D01*
X96516Y-50661D02*
X96554Y-50642D01*
X96573Y-50623D01*
X96592Y-50585D01*
X96592Y-50471D01*
X96573Y-50433D01*
X96554Y-50414D01*
X96516Y-50395D01*
X96459Y-50395D01*
X96421Y-50414D01*
X96402Y-50433D01*
X96383Y-50471D01*
X96383Y-50585D01*
X96402Y-50623D01*
X96421Y-50642D01*
X96459Y-50661D01*
X96516Y-50661D01*
X96040Y-50661D02*
X96040Y-50452D01*
X96059Y-50414D01*
X96097Y-50395D01*
X96173Y-50395D01*
X96211Y-50414D01*
X96040Y-50642D02*
X96078Y-50661D01*
X96173Y-50661D01*
X96211Y-50642D01*
X96230Y-50604D01*
X96230Y-50566D01*
X96211Y-50528D01*
X96173Y-50509D01*
X96078Y-50509D01*
X96040Y-50490D01*
X95850Y-50661D02*
X95850Y-50395D01*
X95850Y-50471D02*
X95830Y-50433D01*
X95811Y-50414D01*
X95773Y-50395D01*
X95735Y-50395D01*
X95430Y-50661D02*
X95430Y-50261D01*
X95430Y-50642D02*
X95469Y-50661D01*
X95545Y-50661D01*
X95583Y-50642D01*
X95602Y-50623D01*
X95621Y-50585D01*
X95621Y-50471D01*
X95602Y-50433D01*
X95583Y-50414D01*
X95545Y-50395D01*
X95469Y-50395D01*
X95430Y-50414D01*
X95240Y-50509D02*
X94935Y-50509D01*
X94745Y-50661D02*
X94745Y-50261D01*
X94573Y-50661D02*
X94573Y-50452D01*
X94592Y-50414D01*
X94630Y-50395D01*
X94688Y-50395D01*
X94726Y-50414D01*
X94745Y-50433D01*
X94230Y-50642D02*
X94269Y-50661D01*
X94345Y-50661D01*
X94383Y-50642D01*
X94402Y-50604D01*
X94402Y-50452D01*
X94383Y-50414D01*
X94345Y-50395D01*
X94269Y-50395D01*
X94230Y-50414D01*
X94211Y-50452D01*
X94211Y-50490D01*
X94402Y-50528D01*
X93983Y-50661D02*
X94021Y-50642D01*
X94040Y-50604D01*
X94040Y-50261D01*
X93830Y-50395D02*
X93830Y-50795D01*
X93830Y-50414D02*
X93792Y-50395D01*
X93716Y-50395D01*
X93678Y-50414D01*
X93659Y-50433D01*
X93640Y-50471D01*
X93640Y-50585D01*
X93659Y-50623D01*
X93678Y-50642D01*
X93716Y-50661D01*
X93792Y-50661D01*
X93830Y-50642D01*
X93316Y-50642D02*
X93354Y-50661D01*
X93430Y-50661D01*
X93469Y-50642D01*
X93488Y-50604D01*
X93488Y-50452D01*
X93469Y-50414D01*
X93430Y-50395D01*
X93354Y-50395D01*
X93316Y-50414D01*
X93297Y-50452D01*
X93297Y-50490D01*
X93488Y-50528D01*
X93126Y-50661D02*
X93126Y-50395D01*
X93126Y-50471D02*
X93107Y-50433D01*
X93088Y-50414D01*
X93050Y-50395D01*
X93011Y-50395D01*
X92897Y-50642D02*
X92859Y-50661D01*
X92783Y-50661D01*
X92745Y-50642D01*
X92726Y-50604D01*
X92726Y-50585D01*
X92745Y-50547D01*
X92783Y-50528D01*
X92840Y-50528D01*
X92878Y-50509D01*
X92897Y-50471D01*
X92897Y-50452D01*
X92878Y-50414D01*
X92840Y-50395D01*
X92783Y-50395D01*
X92745Y-50414D01*
M02*
