M48
;DRILL file {Pcbnew (22-Jun-2014 BZR 4027)-stable} date Sun 09 Jul 2017 03:17:55 PM CDT
;FORMAT={-:-/ absolute / inch / decimal}
FMAT,2
INCH,TZ
T1C0.032
T2C0.040
T3C0.108
%
G90
G05
M72
T1
X9.65Y-4.4
X9.65Y-4.8
X9.825Y-4.625
X9.825Y-4.725
X9.875Y-4.85
X9.875Y-4.975
X10.425Y-4.85
X10.425Y-4.975
X10.475Y-4.625
X10.475Y-4.725
T2
X9.65Y-4.15
X9.65Y-4.25
X9.65Y-4.925
X9.825Y-4.4
X9.825Y-4.5
X9.85Y-4.15
X10.Y-4.15
X10.05Y-4.85
X10.075Y-4.325
X10.075Y-4.725
X10.1Y-4.15
X10.15Y-4.85
X10.25Y-4.85
X10.65Y-4.15
X10.65Y-4.25
X10.65Y-4.675
X10.65Y-4.925
T3
X10.215Y-4.305
X10.4Y-4.19
X10.4Y-4.425
T0
M30
