G04 (created by PCBNEW (22-Jun-2014 BZR 4027)-stable) date Sun 09 Jul 2017 03:17:53 PM CDT*
%MOIN*%
G04 Gerber Fmt 3.4, Leading zero omitted, Abs format*
%FSLAX34Y34*%
G01*
G70*
G90*
G04 APERTURE LIST*
%ADD10C,0.00590551*%
%ADD11R,0.069X0.069*%
%ADD12O,0.069X0.069*%
%ADD13C,0.069*%
%ADD14O,0.059X0.059*%
%ADD15R,0.059X0.064*%
%ADD16R,0.16X0.16*%
%ADD17C,0.16*%
%ADD18R,0.059X0.059*%
%ADD19C,0.01*%
G04 APERTURE END LIST*
G54D10*
G54D11*
X102500Y-48500D03*
G54D12*
X101500Y-48500D03*
X100500Y-48500D03*
G54D11*
X100000Y-41500D03*
G54D13*
X101000Y-41500D03*
G54D11*
X98500Y-41500D03*
X106500Y-46750D03*
X96500Y-41500D03*
X96500Y-42500D03*
X96500Y-49250D03*
X106500Y-49250D03*
G54D14*
X96500Y-48000D03*
X96500Y-44000D03*
G54D11*
X98250Y-44000D03*
G54D12*
X98250Y-45000D03*
G54D11*
X100750Y-47250D03*
G54D12*
X100750Y-43250D03*
G54D15*
X104250Y-48550D03*
X104250Y-49700D03*
X98750Y-48550D03*
X98750Y-49700D03*
G54D16*
X104000Y-44250D03*
G54D17*
X104000Y-41900D03*
X102150Y-43050D03*
G54D11*
X106500Y-41500D03*
X106500Y-42500D03*
G54D18*
X104750Y-47250D03*
G54D14*
X104750Y-46250D03*
G54D18*
X98250Y-47250D03*
G54D14*
X98250Y-46250D03*
G54D10*
G36*
X106950Y-50200D02*
X105295Y-50200D01*
X105295Y-47495D01*
X105295Y-46905D01*
X105257Y-46813D01*
X105186Y-46743D01*
X105094Y-46705D01*
X105043Y-46704D01*
X105186Y-46576D01*
X105278Y-46384D01*
X105278Y-46115D01*
X105186Y-45923D01*
X105051Y-45802D01*
X105051Y-42101D01*
X105048Y-41683D01*
X104894Y-41311D01*
X104747Y-41223D01*
X104070Y-41900D01*
X104747Y-42576D01*
X104894Y-42488D01*
X105051Y-42101D01*
X105051Y-45802D01*
X105050Y-45800D01*
X105050Y-45000D01*
X105050Y-43400D01*
X105012Y-43308D01*
X104941Y-43238D01*
X104849Y-43200D01*
X104750Y-43199D01*
X104676Y-43199D01*
X104676Y-42647D01*
X104000Y-41970D01*
X103929Y-42041D01*
X103929Y-41900D01*
X103252Y-41223D01*
X103105Y-41311D01*
X102948Y-41698D01*
X102951Y-42116D01*
X103105Y-42488D01*
X103252Y-42576D01*
X103929Y-41900D01*
X103929Y-42041D01*
X103323Y-42647D01*
X103411Y-42794D01*
X103798Y-42951D01*
X104216Y-42948D01*
X104588Y-42794D01*
X104676Y-42647D01*
X104676Y-43199D01*
X103199Y-43199D01*
X103200Y-42842D01*
X103040Y-42456D01*
X102745Y-42160D01*
X102359Y-42000D01*
X101942Y-41999D01*
X101599Y-42141D01*
X101599Y-41592D01*
X101589Y-41356D01*
X101518Y-41185D01*
X101418Y-41152D01*
X101070Y-41500D01*
X101418Y-41847D01*
X101518Y-41814D01*
X101599Y-41592D01*
X101599Y-42141D01*
X101556Y-42159D01*
X101347Y-42367D01*
X101260Y-42454D01*
X101122Y-42785D01*
X100977Y-42688D01*
X100750Y-42643D01*
X100522Y-42688D01*
X100329Y-42817D01*
X100200Y-43010D01*
X100155Y-43238D01*
X100155Y-43261D01*
X100200Y-43489D01*
X100329Y-43682D01*
X100522Y-43811D01*
X100750Y-43856D01*
X100977Y-43811D01*
X101170Y-43682D01*
X101235Y-43585D01*
X101259Y-43644D01*
X101554Y-43939D01*
X101940Y-44099D01*
X102357Y-44100D01*
X102744Y-43940D01*
X102949Y-43735D01*
X102949Y-45099D01*
X102987Y-45191D01*
X103058Y-45261D01*
X103150Y-45299D01*
X103249Y-45300D01*
X104849Y-45300D01*
X104941Y-45262D01*
X105011Y-45191D01*
X105049Y-45099D01*
X105050Y-45000D01*
X105050Y-45800D01*
X105028Y-45781D01*
X104884Y-45721D01*
X104800Y-45770D01*
X104800Y-46200D01*
X105230Y-46200D01*
X105278Y-46115D01*
X105278Y-46384D01*
X105230Y-46300D01*
X104800Y-46300D01*
X104800Y-46307D01*
X104700Y-46307D01*
X104700Y-46300D01*
X104700Y-46200D01*
X104700Y-45770D01*
X104615Y-45721D01*
X104471Y-45781D01*
X104313Y-45923D01*
X104221Y-46115D01*
X104269Y-46200D01*
X104700Y-46200D01*
X104700Y-46300D01*
X104269Y-46300D01*
X104221Y-46384D01*
X104313Y-46576D01*
X104456Y-46704D01*
X104405Y-46704D01*
X104313Y-46742D01*
X104243Y-46813D01*
X104205Y-46905D01*
X104204Y-47004D01*
X104204Y-47594D01*
X104242Y-47686D01*
X104313Y-47756D01*
X104405Y-47794D01*
X104504Y-47795D01*
X105094Y-47795D01*
X105186Y-47757D01*
X105256Y-47686D01*
X105294Y-47594D01*
X105295Y-47495D01*
X105295Y-50200D01*
X104718Y-50200D01*
X104757Y-50161D01*
X104795Y-50069D01*
X104795Y-49330D01*
X104795Y-48820D01*
X104795Y-48180D01*
X104757Y-48088D01*
X104686Y-48018D01*
X104594Y-47980D01*
X104495Y-47979D01*
X103905Y-47979D01*
X103813Y-48017D01*
X103743Y-48088D01*
X103705Y-48180D01*
X103704Y-48279D01*
X103704Y-48919D01*
X103742Y-49011D01*
X103813Y-49081D01*
X103905Y-49119D01*
X104004Y-49120D01*
X104594Y-49120D01*
X104686Y-49082D01*
X104756Y-49011D01*
X104794Y-48919D01*
X104795Y-48820D01*
X104795Y-49330D01*
X104757Y-49238D01*
X104686Y-49168D01*
X104594Y-49130D01*
X104495Y-49129D01*
X104362Y-49130D01*
X104300Y-49192D01*
X104300Y-49650D01*
X104732Y-49650D01*
X104795Y-49587D01*
X104795Y-49330D01*
X104795Y-50069D01*
X104795Y-49812D01*
X104732Y-49750D01*
X104300Y-49750D01*
X104300Y-49757D01*
X104200Y-49757D01*
X104200Y-49750D01*
X104200Y-49650D01*
X104200Y-49192D01*
X104137Y-49130D01*
X104004Y-49129D01*
X103905Y-49130D01*
X103813Y-49168D01*
X103742Y-49238D01*
X103704Y-49330D01*
X103705Y-49587D01*
X103767Y-49650D01*
X104200Y-49650D01*
X104200Y-49750D01*
X103767Y-49750D01*
X103705Y-49812D01*
X103704Y-50069D01*
X103742Y-50161D01*
X103781Y-50200D01*
X103095Y-50200D01*
X103095Y-48795D01*
X103095Y-48105D01*
X103057Y-48013D01*
X102986Y-47943D01*
X102894Y-47905D01*
X102795Y-47904D01*
X102105Y-47904D01*
X102013Y-47942D01*
X101943Y-48013D01*
X101912Y-48086D01*
X101808Y-47990D01*
X101642Y-47922D01*
X101550Y-47969D01*
X101550Y-48450D01*
X101557Y-48450D01*
X101557Y-48550D01*
X101550Y-48550D01*
X101550Y-49030D01*
X101642Y-49077D01*
X101808Y-49009D01*
X101912Y-48913D01*
X101942Y-48986D01*
X102013Y-49056D01*
X102105Y-49094D01*
X102204Y-49095D01*
X102894Y-49095D01*
X102986Y-49057D01*
X103056Y-48986D01*
X103094Y-48894D01*
X103095Y-48795D01*
X103095Y-50200D01*
X101450Y-50200D01*
X101450Y-49030D01*
X101450Y-48550D01*
X101442Y-48550D01*
X101442Y-48450D01*
X101450Y-48450D01*
X101450Y-47969D01*
X101357Y-47922D01*
X101345Y-47927D01*
X101345Y-47545D01*
X101345Y-46855D01*
X101307Y-46763D01*
X101236Y-46693D01*
X101144Y-46655D01*
X101045Y-46654D01*
X100355Y-46654D01*
X100263Y-46692D01*
X100193Y-46763D01*
X100155Y-46855D01*
X100154Y-46954D01*
X100154Y-47644D01*
X100192Y-47736D01*
X100263Y-47806D01*
X100355Y-47844D01*
X100454Y-47845D01*
X101144Y-47845D01*
X101236Y-47807D01*
X101306Y-47736D01*
X101344Y-47644D01*
X101345Y-47545D01*
X101345Y-47927D01*
X101191Y-47990D01*
X101020Y-48147D01*
X101001Y-48188D01*
X100920Y-48067D01*
X100727Y-47938D01*
X100500Y-47893D01*
X100272Y-47938D01*
X100079Y-48067D01*
X99950Y-48260D01*
X99905Y-48488D01*
X99905Y-48511D01*
X99950Y-48739D01*
X100079Y-48932D01*
X100272Y-49061D01*
X100500Y-49106D01*
X100727Y-49061D01*
X100920Y-48932D01*
X101001Y-48811D01*
X101020Y-48852D01*
X101191Y-49009D01*
X101357Y-49077D01*
X101450Y-49030D01*
X101450Y-50200D01*
X99218Y-50200D01*
X99257Y-50161D01*
X99295Y-50069D01*
X99295Y-49330D01*
X99295Y-48820D01*
X99295Y-48180D01*
X99257Y-48088D01*
X99186Y-48018D01*
X99094Y-47980D01*
X98995Y-47979D01*
X98845Y-47979D01*
X98845Y-44295D01*
X98845Y-43605D01*
X98807Y-43513D01*
X98736Y-43443D01*
X98644Y-43405D01*
X98545Y-43404D01*
X97855Y-43404D01*
X97763Y-43442D01*
X97693Y-43513D01*
X97655Y-43605D01*
X97654Y-43704D01*
X97654Y-44394D01*
X97692Y-44486D01*
X97763Y-44556D01*
X97836Y-44587D01*
X97770Y-44647D01*
X97672Y-44857D01*
X97719Y-44950D01*
X98200Y-44950D01*
X98200Y-44942D01*
X98300Y-44942D01*
X98300Y-44950D01*
X98780Y-44950D01*
X98827Y-44857D01*
X98729Y-44647D01*
X98663Y-44587D01*
X98736Y-44557D01*
X98806Y-44486D01*
X98844Y-44394D01*
X98845Y-44295D01*
X98845Y-47979D01*
X98827Y-47979D01*
X98827Y-45142D01*
X98780Y-45050D01*
X98300Y-45050D01*
X98300Y-45530D01*
X98392Y-45577D01*
X98558Y-45509D01*
X98729Y-45352D01*
X98827Y-45142D01*
X98827Y-47979D01*
X98795Y-47979D01*
X98795Y-47495D01*
X98795Y-46905D01*
X98757Y-46813D01*
X98686Y-46743D01*
X98594Y-46705D01*
X98543Y-46704D01*
X98686Y-46576D01*
X98778Y-46384D01*
X98778Y-46115D01*
X98686Y-45923D01*
X98528Y-45781D01*
X98384Y-45721D01*
X98300Y-45770D01*
X98300Y-46200D01*
X98730Y-46200D01*
X98778Y-46115D01*
X98778Y-46384D01*
X98730Y-46300D01*
X98300Y-46300D01*
X98300Y-46307D01*
X98200Y-46307D01*
X98200Y-46300D01*
X98200Y-46200D01*
X98200Y-45770D01*
X98200Y-45530D01*
X98200Y-45050D01*
X97719Y-45050D01*
X97672Y-45142D01*
X97770Y-45352D01*
X97941Y-45509D01*
X98107Y-45577D01*
X98200Y-45530D01*
X98200Y-45770D01*
X98115Y-45721D01*
X97971Y-45781D01*
X97813Y-45923D01*
X97721Y-46115D01*
X97769Y-46200D01*
X98200Y-46200D01*
X98200Y-46300D01*
X97769Y-46300D01*
X97721Y-46384D01*
X97813Y-46576D01*
X97956Y-46704D01*
X97905Y-46704D01*
X97813Y-46742D01*
X97743Y-46813D01*
X97705Y-46905D01*
X97704Y-47004D01*
X97704Y-47594D01*
X97742Y-47686D01*
X97813Y-47756D01*
X97905Y-47794D01*
X98004Y-47795D01*
X98594Y-47795D01*
X98686Y-47757D01*
X98756Y-47686D01*
X98794Y-47594D01*
X98795Y-47495D01*
X98795Y-47979D01*
X98405Y-47979D01*
X98313Y-48017D01*
X98243Y-48088D01*
X98205Y-48180D01*
X98204Y-48279D01*
X98204Y-48919D01*
X98242Y-49011D01*
X98313Y-49081D01*
X98405Y-49119D01*
X98504Y-49120D01*
X99094Y-49120D01*
X99186Y-49082D01*
X99256Y-49011D01*
X99294Y-48919D01*
X99295Y-48820D01*
X99295Y-49330D01*
X99257Y-49238D01*
X99186Y-49168D01*
X99094Y-49130D01*
X98995Y-49129D01*
X98862Y-49130D01*
X98800Y-49192D01*
X98800Y-49650D01*
X99232Y-49650D01*
X99295Y-49587D01*
X99295Y-49330D01*
X99295Y-50069D01*
X99295Y-49812D01*
X99232Y-49750D01*
X98800Y-49750D01*
X98800Y-49757D01*
X98700Y-49757D01*
X98700Y-49750D01*
X98700Y-49650D01*
X98700Y-49192D01*
X98637Y-49130D01*
X98504Y-49129D01*
X98405Y-49130D01*
X98313Y-49168D01*
X98242Y-49238D01*
X98204Y-49330D01*
X98205Y-49587D01*
X98267Y-49650D01*
X98700Y-49650D01*
X98700Y-49750D01*
X98267Y-49750D01*
X98205Y-49812D01*
X98204Y-50069D01*
X98242Y-50161D01*
X98281Y-50200D01*
X96050Y-50200D01*
X96050Y-49822D01*
X96105Y-49844D01*
X96204Y-49845D01*
X96894Y-49845D01*
X96986Y-49807D01*
X97056Y-49736D01*
X97094Y-49644D01*
X97095Y-49545D01*
X97095Y-48855D01*
X97095Y-42795D01*
X97095Y-42612D01*
X97032Y-42550D01*
X96550Y-42550D01*
X96550Y-43032D01*
X96612Y-43095D01*
X96894Y-43095D01*
X96986Y-43057D01*
X97056Y-42986D01*
X97094Y-42894D01*
X97095Y-42795D01*
X97095Y-48855D01*
X97057Y-48763D01*
X96986Y-48693D01*
X96894Y-48655D01*
X96795Y-48654D01*
X96105Y-48654D01*
X96050Y-48677D01*
X96050Y-48299D01*
X96114Y-48396D01*
X96291Y-48514D01*
X96500Y-48555D01*
X96708Y-48514D01*
X96885Y-48396D01*
X97003Y-48219D01*
X97045Y-48010D01*
X97045Y-47989D01*
X97003Y-47780D01*
X96885Y-47603D01*
X96708Y-47485D01*
X96500Y-47444D01*
X96291Y-47485D01*
X96114Y-47603D01*
X96050Y-47700D01*
X96050Y-44299D01*
X96114Y-44396D01*
X96291Y-44514D01*
X96500Y-44555D01*
X96708Y-44514D01*
X96885Y-44396D01*
X97003Y-44219D01*
X97045Y-44010D01*
X97045Y-43989D01*
X97003Y-43780D01*
X96885Y-43603D01*
X96708Y-43485D01*
X96500Y-43444D01*
X96291Y-43485D01*
X96114Y-43603D01*
X96050Y-43700D01*
X96050Y-43072D01*
X96105Y-43095D01*
X96387Y-43095D01*
X96450Y-43032D01*
X96450Y-42550D01*
X96442Y-42550D01*
X96442Y-42450D01*
X96450Y-42450D01*
X96450Y-42442D01*
X96550Y-42442D01*
X96550Y-42450D01*
X97032Y-42450D01*
X97095Y-42387D01*
X97095Y-42204D01*
X97094Y-42105D01*
X97056Y-42013D01*
X97043Y-42000D01*
X97056Y-41986D01*
X97094Y-41894D01*
X97095Y-41795D01*
X97095Y-41105D01*
X97072Y-41050D01*
X97927Y-41050D01*
X97905Y-41105D01*
X97904Y-41204D01*
X97904Y-41894D01*
X97942Y-41986D01*
X98013Y-42056D01*
X98105Y-42094D01*
X98204Y-42095D01*
X98894Y-42095D01*
X98986Y-42057D01*
X99056Y-41986D01*
X99094Y-41894D01*
X99095Y-41795D01*
X99095Y-41105D01*
X99072Y-41050D01*
X99427Y-41050D01*
X99405Y-41105D01*
X99404Y-41204D01*
X99404Y-41894D01*
X99442Y-41986D01*
X99513Y-42056D01*
X99605Y-42094D01*
X99704Y-42095D01*
X100394Y-42095D01*
X100486Y-42057D01*
X100556Y-41986D01*
X100578Y-41934D01*
X100607Y-41963D01*
X100652Y-41918D01*
X100685Y-42018D01*
X100907Y-42099D01*
X101143Y-42089D01*
X101314Y-42018D01*
X101347Y-41918D01*
X101000Y-41570D01*
X100994Y-41576D01*
X100923Y-41505D01*
X100929Y-41500D01*
X100923Y-41494D01*
X100994Y-41423D01*
X101000Y-41429D01*
X101347Y-41081D01*
X101337Y-41050D01*
X103385Y-41050D01*
X103323Y-41152D01*
X104000Y-41829D01*
X104676Y-41152D01*
X104614Y-41050D01*
X105927Y-41050D01*
X105905Y-41105D01*
X105904Y-41204D01*
X105904Y-41894D01*
X105942Y-41986D01*
X105956Y-41999D01*
X105943Y-42013D01*
X105905Y-42105D01*
X105904Y-42204D01*
X105905Y-42387D01*
X105967Y-42450D01*
X106450Y-42450D01*
X106450Y-42442D01*
X106550Y-42442D01*
X106550Y-42450D01*
X106557Y-42450D01*
X106557Y-42550D01*
X106550Y-42550D01*
X106550Y-43032D01*
X106612Y-43095D01*
X106894Y-43095D01*
X106950Y-43072D01*
X106950Y-46177D01*
X106894Y-46154D01*
X106612Y-46155D01*
X106550Y-46217D01*
X106550Y-46700D01*
X106557Y-46700D01*
X106557Y-46800D01*
X106550Y-46800D01*
X106550Y-47282D01*
X106612Y-47345D01*
X106894Y-47345D01*
X106950Y-47322D01*
X106950Y-48677D01*
X106894Y-48655D01*
X106795Y-48654D01*
X106450Y-48654D01*
X106450Y-47282D01*
X106450Y-46800D01*
X106450Y-46700D01*
X106450Y-46217D01*
X106450Y-43032D01*
X106450Y-42550D01*
X105967Y-42550D01*
X105905Y-42612D01*
X105904Y-42795D01*
X105905Y-42894D01*
X105943Y-42986D01*
X106013Y-43057D01*
X106105Y-43095D01*
X106387Y-43095D01*
X106450Y-43032D01*
X106450Y-46217D01*
X106387Y-46155D01*
X106105Y-46154D01*
X106013Y-46192D01*
X105943Y-46263D01*
X105905Y-46355D01*
X105904Y-46454D01*
X105905Y-46637D01*
X105967Y-46700D01*
X106450Y-46700D01*
X106450Y-46800D01*
X105967Y-46800D01*
X105905Y-46862D01*
X105904Y-47045D01*
X105905Y-47144D01*
X105943Y-47236D01*
X106013Y-47307D01*
X106105Y-47345D01*
X106387Y-47345D01*
X106450Y-47282D01*
X106450Y-48654D01*
X106105Y-48654D01*
X106013Y-48692D01*
X105943Y-48763D01*
X105905Y-48855D01*
X105904Y-48954D01*
X105904Y-49644D01*
X105942Y-49736D01*
X106013Y-49806D01*
X106105Y-49844D01*
X106204Y-49845D01*
X106894Y-49845D01*
X106950Y-49822D01*
X106950Y-50200D01*
X106950Y-50200D01*
G37*
G54D19*
X106950Y-50200D02*
X105295Y-50200D01*
X105295Y-47495D01*
X105295Y-46905D01*
X105257Y-46813D01*
X105186Y-46743D01*
X105094Y-46705D01*
X105043Y-46704D01*
X105186Y-46576D01*
X105278Y-46384D01*
X105278Y-46115D01*
X105186Y-45923D01*
X105051Y-45802D01*
X105051Y-42101D01*
X105048Y-41683D01*
X104894Y-41311D01*
X104747Y-41223D01*
X104070Y-41900D01*
X104747Y-42576D01*
X104894Y-42488D01*
X105051Y-42101D01*
X105051Y-45802D01*
X105050Y-45800D01*
X105050Y-45000D01*
X105050Y-43400D01*
X105012Y-43308D01*
X104941Y-43238D01*
X104849Y-43200D01*
X104750Y-43199D01*
X104676Y-43199D01*
X104676Y-42647D01*
X104000Y-41970D01*
X103929Y-42041D01*
X103929Y-41900D01*
X103252Y-41223D01*
X103105Y-41311D01*
X102948Y-41698D01*
X102951Y-42116D01*
X103105Y-42488D01*
X103252Y-42576D01*
X103929Y-41900D01*
X103929Y-42041D01*
X103323Y-42647D01*
X103411Y-42794D01*
X103798Y-42951D01*
X104216Y-42948D01*
X104588Y-42794D01*
X104676Y-42647D01*
X104676Y-43199D01*
X103199Y-43199D01*
X103200Y-42842D01*
X103040Y-42456D01*
X102745Y-42160D01*
X102359Y-42000D01*
X101942Y-41999D01*
X101599Y-42141D01*
X101599Y-41592D01*
X101589Y-41356D01*
X101518Y-41185D01*
X101418Y-41152D01*
X101070Y-41500D01*
X101418Y-41847D01*
X101518Y-41814D01*
X101599Y-41592D01*
X101599Y-42141D01*
X101556Y-42159D01*
X101347Y-42367D01*
X101260Y-42454D01*
X101122Y-42785D01*
X100977Y-42688D01*
X100750Y-42643D01*
X100522Y-42688D01*
X100329Y-42817D01*
X100200Y-43010D01*
X100155Y-43238D01*
X100155Y-43261D01*
X100200Y-43489D01*
X100329Y-43682D01*
X100522Y-43811D01*
X100750Y-43856D01*
X100977Y-43811D01*
X101170Y-43682D01*
X101235Y-43585D01*
X101259Y-43644D01*
X101554Y-43939D01*
X101940Y-44099D01*
X102357Y-44100D01*
X102744Y-43940D01*
X102949Y-43735D01*
X102949Y-45099D01*
X102987Y-45191D01*
X103058Y-45261D01*
X103150Y-45299D01*
X103249Y-45300D01*
X104849Y-45300D01*
X104941Y-45262D01*
X105011Y-45191D01*
X105049Y-45099D01*
X105050Y-45000D01*
X105050Y-45800D01*
X105028Y-45781D01*
X104884Y-45721D01*
X104800Y-45770D01*
X104800Y-46200D01*
X105230Y-46200D01*
X105278Y-46115D01*
X105278Y-46384D01*
X105230Y-46300D01*
X104800Y-46300D01*
X104800Y-46307D01*
X104700Y-46307D01*
X104700Y-46300D01*
X104700Y-46200D01*
X104700Y-45770D01*
X104615Y-45721D01*
X104471Y-45781D01*
X104313Y-45923D01*
X104221Y-46115D01*
X104269Y-46200D01*
X104700Y-46200D01*
X104700Y-46300D01*
X104269Y-46300D01*
X104221Y-46384D01*
X104313Y-46576D01*
X104456Y-46704D01*
X104405Y-46704D01*
X104313Y-46742D01*
X104243Y-46813D01*
X104205Y-46905D01*
X104204Y-47004D01*
X104204Y-47594D01*
X104242Y-47686D01*
X104313Y-47756D01*
X104405Y-47794D01*
X104504Y-47795D01*
X105094Y-47795D01*
X105186Y-47757D01*
X105256Y-47686D01*
X105294Y-47594D01*
X105295Y-47495D01*
X105295Y-50200D01*
X104718Y-50200D01*
X104757Y-50161D01*
X104795Y-50069D01*
X104795Y-49330D01*
X104795Y-48820D01*
X104795Y-48180D01*
X104757Y-48088D01*
X104686Y-48018D01*
X104594Y-47980D01*
X104495Y-47979D01*
X103905Y-47979D01*
X103813Y-48017D01*
X103743Y-48088D01*
X103705Y-48180D01*
X103704Y-48279D01*
X103704Y-48919D01*
X103742Y-49011D01*
X103813Y-49081D01*
X103905Y-49119D01*
X104004Y-49120D01*
X104594Y-49120D01*
X104686Y-49082D01*
X104756Y-49011D01*
X104794Y-48919D01*
X104795Y-48820D01*
X104795Y-49330D01*
X104757Y-49238D01*
X104686Y-49168D01*
X104594Y-49130D01*
X104495Y-49129D01*
X104362Y-49130D01*
X104300Y-49192D01*
X104300Y-49650D01*
X104732Y-49650D01*
X104795Y-49587D01*
X104795Y-49330D01*
X104795Y-50069D01*
X104795Y-49812D01*
X104732Y-49750D01*
X104300Y-49750D01*
X104300Y-49757D01*
X104200Y-49757D01*
X104200Y-49750D01*
X104200Y-49650D01*
X104200Y-49192D01*
X104137Y-49130D01*
X104004Y-49129D01*
X103905Y-49130D01*
X103813Y-49168D01*
X103742Y-49238D01*
X103704Y-49330D01*
X103705Y-49587D01*
X103767Y-49650D01*
X104200Y-49650D01*
X104200Y-49750D01*
X103767Y-49750D01*
X103705Y-49812D01*
X103704Y-50069D01*
X103742Y-50161D01*
X103781Y-50200D01*
X103095Y-50200D01*
X103095Y-48795D01*
X103095Y-48105D01*
X103057Y-48013D01*
X102986Y-47943D01*
X102894Y-47905D01*
X102795Y-47904D01*
X102105Y-47904D01*
X102013Y-47942D01*
X101943Y-48013D01*
X101912Y-48086D01*
X101808Y-47990D01*
X101642Y-47922D01*
X101550Y-47969D01*
X101550Y-48450D01*
X101557Y-48450D01*
X101557Y-48550D01*
X101550Y-48550D01*
X101550Y-49030D01*
X101642Y-49077D01*
X101808Y-49009D01*
X101912Y-48913D01*
X101942Y-48986D01*
X102013Y-49056D01*
X102105Y-49094D01*
X102204Y-49095D01*
X102894Y-49095D01*
X102986Y-49057D01*
X103056Y-48986D01*
X103094Y-48894D01*
X103095Y-48795D01*
X103095Y-50200D01*
X101450Y-50200D01*
X101450Y-49030D01*
X101450Y-48550D01*
X101442Y-48550D01*
X101442Y-48450D01*
X101450Y-48450D01*
X101450Y-47969D01*
X101357Y-47922D01*
X101345Y-47927D01*
X101345Y-47545D01*
X101345Y-46855D01*
X101307Y-46763D01*
X101236Y-46693D01*
X101144Y-46655D01*
X101045Y-46654D01*
X100355Y-46654D01*
X100263Y-46692D01*
X100193Y-46763D01*
X100155Y-46855D01*
X100154Y-46954D01*
X100154Y-47644D01*
X100192Y-47736D01*
X100263Y-47806D01*
X100355Y-47844D01*
X100454Y-47845D01*
X101144Y-47845D01*
X101236Y-47807D01*
X101306Y-47736D01*
X101344Y-47644D01*
X101345Y-47545D01*
X101345Y-47927D01*
X101191Y-47990D01*
X101020Y-48147D01*
X101001Y-48188D01*
X100920Y-48067D01*
X100727Y-47938D01*
X100500Y-47893D01*
X100272Y-47938D01*
X100079Y-48067D01*
X99950Y-48260D01*
X99905Y-48488D01*
X99905Y-48511D01*
X99950Y-48739D01*
X100079Y-48932D01*
X100272Y-49061D01*
X100500Y-49106D01*
X100727Y-49061D01*
X100920Y-48932D01*
X101001Y-48811D01*
X101020Y-48852D01*
X101191Y-49009D01*
X101357Y-49077D01*
X101450Y-49030D01*
X101450Y-50200D01*
X99218Y-50200D01*
X99257Y-50161D01*
X99295Y-50069D01*
X99295Y-49330D01*
X99295Y-48820D01*
X99295Y-48180D01*
X99257Y-48088D01*
X99186Y-48018D01*
X99094Y-47980D01*
X98995Y-47979D01*
X98845Y-47979D01*
X98845Y-44295D01*
X98845Y-43605D01*
X98807Y-43513D01*
X98736Y-43443D01*
X98644Y-43405D01*
X98545Y-43404D01*
X97855Y-43404D01*
X97763Y-43442D01*
X97693Y-43513D01*
X97655Y-43605D01*
X97654Y-43704D01*
X97654Y-44394D01*
X97692Y-44486D01*
X97763Y-44556D01*
X97836Y-44587D01*
X97770Y-44647D01*
X97672Y-44857D01*
X97719Y-44950D01*
X98200Y-44950D01*
X98200Y-44942D01*
X98300Y-44942D01*
X98300Y-44950D01*
X98780Y-44950D01*
X98827Y-44857D01*
X98729Y-44647D01*
X98663Y-44587D01*
X98736Y-44557D01*
X98806Y-44486D01*
X98844Y-44394D01*
X98845Y-44295D01*
X98845Y-47979D01*
X98827Y-47979D01*
X98827Y-45142D01*
X98780Y-45050D01*
X98300Y-45050D01*
X98300Y-45530D01*
X98392Y-45577D01*
X98558Y-45509D01*
X98729Y-45352D01*
X98827Y-45142D01*
X98827Y-47979D01*
X98795Y-47979D01*
X98795Y-47495D01*
X98795Y-46905D01*
X98757Y-46813D01*
X98686Y-46743D01*
X98594Y-46705D01*
X98543Y-46704D01*
X98686Y-46576D01*
X98778Y-46384D01*
X98778Y-46115D01*
X98686Y-45923D01*
X98528Y-45781D01*
X98384Y-45721D01*
X98300Y-45770D01*
X98300Y-46200D01*
X98730Y-46200D01*
X98778Y-46115D01*
X98778Y-46384D01*
X98730Y-46300D01*
X98300Y-46300D01*
X98300Y-46307D01*
X98200Y-46307D01*
X98200Y-46300D01*
X98200Y-46200D01*
X98200Y-45770D01*
X98200Y-45530D01*
X98200Y-45050D01*
X97719Y-45050D01*
X97672Y-45142D01*
X97770Y-45352D01*
X97941Y-45509D01*
X98107Y-45577D01*
X98200Y-45530D01*
X98200Y-45770D01*
X98115Y-45721D01*
X97971Y-45781D01*
X97813Y-45923D01*
X97721Y-46115D01*
X97769Y-46200D01*
X98200Y-46200D01*
X98200Y-46300D01*
X97769Y-46300D01*
X97721Y-46384D01*
X97813Y-46576D01*
X97956Y-46704D01*
X97905Y-46704D01*
X97813Y-46742D01*
X97743Y-46813D01*
X97705Y-46905D01*
X97704Y-47004D01*
X97704Y-47594D01*
X97742Y-47686D01*
X97813Y-47756D01*
X97905Y-47794D01*
X98004Y-47795D01*
X98594Y-47795D01*
X98686Y-47757D01*
X98756Y-47686D01*
X98794Y-47594D01*
X98795Y-47495D01*
X98795Y-47979D01*
X98405Y-47979D01*
X98313Y-48017D01*
X98243Y-48088D01*
X98205Y-48180D01*
X98204Y-48279D01*
X98204Y-48919D01*
X98242Y-49011D01*
X98313Y-49081D01*
X98405Y-49119D01*
X98504Y-49120D01*
X99094Y-49120D01*
X99186Y-49082D01*
X99256Y-49011D01*
X99294Y-48919D01*
X99295Y-48820D01*
X99295Y-49330D01*
X99257Y-49238D01*
X99186Y-49168D01*
X99094Y-49130D01*
X98995Y-49129D01*
X98862Y-49130D01*
X98800Y-49192D01*
X98800Y-49650D01*
X99232Y-49650D01*
X99295Y-49587D01*
X99295Y-49330D01*
X99295Y-50069D01*
X99295Y-49812D01*
X99232Y-49750D01*
X98800Y-49750D01*
X98800Y-49757D01*
X98700Y-49757D01*
X98700Y-49750D01*
X98700Y-49650D01*
X98700Y-49192D01*
X98637Y-49130D01*
X98504Y-49129D01*
X98405Y-49130D01*
X98313Y-49168D01*
X98242Y-49238D01*
X98204Y-49330D01*
X98205Y-49587D01*
X98267Y-49650D01*
X98700Y-49650D01*
X98700Y-49750D01*
X98267Y-49750D01*
X98205Y-49812D01*
X98204Y-50069D01*
X98242Y-50161D01*
X98281Y-50200D01*
X96050Y-50200D01*
X96050Y-49822D01*
X96105Y-49844D01*
X96204Y-49845D01*
X96894Y-49845D01*
X96986Y-49807D01*
X97056Y-49736D01*
X97094Y-49644D01*
X97095Y-49545D01*
X97095Y-48855D01*
X97095Y-42795D01*
X97095Y-42612D01*
X97032Y-42550D01*
X96550Y-42550D01*
X96550Y-43032D01*
X96612Y-43095D01*
X96894Y-43095D01*
X96986Y-43057D01*
X97056Y-42986D01*
X97094Y-42894D01*
X97095Y-42795D01*
X97095Y-48855D01*
X97057Y-48763D01*
X96986Y-48693D01*
X96894Y-48655D01*
X96795Y-48654D01*
X96105Y-48654D01*
X96050Y-48677D01*
X96050Y-48299D01*
X96114Y-48396D01*
X96291Y-48514D01*
X96500Y-48555D01*
X96708Y-48514D01*
X96885Y-48396D01*
X97003Y-48219D01*
X97045Y-48010D01*
X97045Y-47989D01*
X97003Y-47780D01*
X96885Y-47603D01*
X96708Y-47485D01*
X96500Y-47444D01*
X96291Y-47485D01*
X96114Y-47603D01*
X96050Y-47700D01*
X96050Y-44299D01*
X96114Y-44396D01*
X96291Y-44514D01*
X96500Y-44555D01*
X96708Y-44514D01*
X96885Y-44396D01*
X97003Y-44219D01*
X97045Y-44010D01*
X97045Y-43989D01*
X97003Y-43780D01*
X96885Y-43603D01*
X96708Y-43485D01*
X96500Y-43444D01*
X96291Y-43485D01*
X96114Y-43603D01*
X96050Y-43700D01*
X96050Y-43072D01*
X96105Y-43095D01*
X96387Y-43095D01*
X96450Y-43032D01*
X96450Y-42550D01*
X96442Y-42550D01*
X96442Y-42450D01*
X96450Y-42450D01*
X96450Y-42442D01*
X96550Y-42442D01*
X96550Y-42450D01*
X97032Y-42450D01*
X97095Y-42387D01*
X97095Y-42204D01*
X97094Y-42105D01*
X97056Y-42013D01*
X97043Y-42000D01*
X97056Y-41986D01*
X97094Y-41894D01*
X97095Y-41795D01*
X97095Y-41105D01*
X97072Y-41050D01*
X97927Y-41050D01*
X97905Y-41105D01*
X97904Y-41204D01*
X97904Y-41894D01*
X97942Y-41986D01*
X98013Y-42056D01*
X98105Y-42094D01*
X98204Y-42095D01*
X98894Y-42095D01*
X98986Y-42057D01*
X99056Y-41986D01*
X99094Y-41894D01*
X99095Y-41795D01*
X99095Y-41105D01*
X99072Y-41050D01*
X99427Y-41050D01*
X99405Y-41105D01*
X99404Y-41204D01*
X99404Y-41894D01*
X99442Y-41986D01*
X99513Y-42056D01*
X99605Y-42094D01*
X99704Y-42095D01*
X100394Y-42095D01*
X100486Y-42057D01*
X100556Y-41986D01*
X100578Y-41934D01*
X100607Y-41963D01*
X100652Y-41918D01*
X100685Y-42018D01*
X100907Y-42099D01*
X101143Y-42089D01*
X101314Y-42018D01*
X101347Y-41918D01*
X101000Y-41570D01*
X100994Y-41576D01*
X100923Y-41505D01*
X100929Y-41500D01*
X100923Y-41494D01*
X100994Y-41423D01*
X101000Y-41429D01*
X101347Y-41081D01*
X101337Y-41050D01*
X103385Y-41050D01*
X103323Y-41152D01*
X104000Y-41829D01*
X104676Y-41152D01*
X104614Y-41050D01*
X105927Y-41050D01*
X105905Y-41105D01*
X105904Y-41204D01*
X105904Y-41894D01*
X105942Y-41986D01*
X105956Y-41999D01*
X105943Y-42013D01*
X105905Y-42105D01*
X105904Y-42204D01*
X105905Y-42387D01*
X105967Y-42450D01*
X106450Y-42450D01*
X106450Y-42442D01*
X106550Y-42442D01*
X106550Y-42450D01*
X106557Y-42450D01*
X106557Y-42550D01*
X106550Y-42550D01*
X106550Y-43032D01*
X106612Y-43095D01*
X106894Y-43095D01*
X106950Y-43072D01*
X106950Y-46177D01*
X106894Y-46154D01*
X106612Y-46155D01*
X106550Y-46217D01*
X106550Y-46700D01*
X106557Y-46700D01*
X106557Y-46800D01*
X106550Y-46800D01*
X106550Y-47282D01*
X106612Y-47345D01*
X106894Y-47345D01*
X106950Y-47322D01*
X106950Y-48677D01*
X106894Y-48655D01*
X106795Y-48654D01*
X106450Y-48654D01*
X106450Y-47282D01*
X106450Y-46800D01*
X106450Y-46700D01*
X106450Y-46217D01*
X106450Y-43032D01*
X106450Y-42550D01*
X105967Y-42550D01*
X105905Y-42612D01*
X105904Y-42795D01*
X105905Y-42894D01*
X105943Y-42986D01*
X106013Y-43057D01*
X106105Y-43095D01*
X106387Y-43095D01*
X106450Y-43032D01*
X106450Y-46217D01*
X106387Y-46155D01*
X106105Y-46154D01*
X106013Y-46192D01*
X105943Y-46263D01*
X105905Y-46355D01*
X105904Y-46454D01*
X105905Y-46637D01*
X105967Y-46700D01*
X106450Y-46700D01*
X106450Y-46800D01*
X105967Y-46800D01*
X105905Y-46862D01*
X105904Y-47045D01*
X105905Y-47144D01*
X105943Y-47236D01*
X106013Y-47307D01*
X106105Y-47345D01*
X106387Y-47345D01*
X106450Y-47282D01*
X106450Y-48654D01*
X106105Y-48654D01*
X106013Y-48692D01*
X105943Y-48763D01*
X105905Y-48855D01*
X105904Y-48954D01*
X105904Y-49644D01*
X105942Y-49736D01*
X106013Y-49806D01*
X106105Y-49844D01*
X106204Y-49845D01*
X106894Y-49845D01*
X106950Y-49822D01*
X106950Y-50200D01*
M02*
