G04 (created by PCBNEW (22-Jun-2014 BZR 4027)-stable) date Sun 09 Jul 2017 03:14:30 PM CDT*
%MOIN*%
G04 Gerber Fmt 3.4, Leading zero omitted, Abs format*
%FSLAX34Y34*%
G01*
G70*
G90*
G04 APERTURE LIST*
%ADD10C,0.00590551*%
%ADD11R,0.069X0.069*%
%ADD12O,0.069X0.069*%
%ADD13C,0.069*%
%ADD14O,0.059X0.059*%
%ADD15R,0.059X0.064*%
%ADD16R,0.16X0.16*%
%ADD17C,0.16*%
%ADD18R,0.059X0.059*%
%ADD19C,0.03*%
%ADD20C,0.04*%
%ADD21C,0.01*%
G04 APERTURE END LIST*
G54D10*
G54D11*
X102000Y-45000D03*
G54D12*
X103000Y-45000D03*
X104000Y-45000D03*
G54D11*
X104500Y-52000D03*
G54D13*
X103500Y-52000D03*
G54D11*
X106000Y-52000D03*
X98000Y-46750D03*
X108000Y-52000D03*
X108000Y-51000D03*
X108000Y-44250D03*
X98000Y-44250D03*
G54D14*
X108000Y-45500D03*
X108000Y-49500D03*
G54D11*
X106250Y-49500D03*
G54D12*
X106250Y-48500D03*
G54D11*
X103750Y-50250D03*
G54D12*
X103750Y-46250D03*
G54D15*
X100250Y-43800D03*
X100250Y-44950D03*
X105750Y-43800D03*
X105750Y-44950D03*
G54D16*
X100500Y-49250D03*
G54D17*
X100500Y-51600D03*
X102350Y-50450D03*
G54D11*
X98000Y-52000D03*
X98000Y-51000D03*
G54D18*
X99750Y-47250D03*
G54D14*
X99750Y-46250D03*
G54D18*
X106250Y-47250D03*
G54D14*
X106250Y-46250D03*
G54D19*
X100750Y-49000D02*
X100500Y-49250D01*
G54D20*
X100250Y-45000D02*
X100750Y-45000D01*
X103000Y-44500D02*
X103000Y-45000D01*
X102500Y-44000D02*
X103000Y-44500D01*
X102000Y-44000D02*
X102500Y-44000D01*
X101500Y-44000D02*
X102000Y-44000D01*
X101000Y-44500D02*
X101500Y-44000D01*
X101000Y-44750D02*
X101000Y-44500D01*
X100750Y-45000D02*
X101000Y-44750D01*
X103750Y-46250D02*
X99750Y-46250D01*
X99750Y-46250D02*
X99750Y-45500D01*
X99750Y-45500D02*
X100250Y-45000D01*
X100500Y-51600D02*
X99850Y-51600D01*
X98000Y-47750D02*
X98000Y-46750D01*
X99000Y-48750D02*
X98000Y-47750D01*
X99000Y-50750D02*
X99000Y-48750D01*
X99850Y-51600D02*
X99000Y-50750D01*
X102350Y-50450D02*
X101200Y-51600D01*
X101200Y-51600D02*
X100500Y-51600D01*
X103500Y-52000D02*
X103500Y-50500D01*
X103500Y-50500D02*
X103750Y-50250D01*
X103750Y-50250D02*
X102550Y-50250D01*
X102550Y-50250D02*
X102350Y-50450D01*
G54D21*
X106250Y-49500D02*
X108000Y-49500D01*
X106250Y-48500D02*
X105750Y-48500D01*
X105750Y-48500D02*
X105250Y-48000D01*
G54D20*
X106250Y-46250D02*
X105750Y-46250D01*
X107250Y-52000D02*
X108000Y-52000D01*
X107000Y-51750D02*
X107250Y-52000D01*
X107000Y-51250D02*
X107000Y-51750D01*
X106500Y-50750D02*
X107000Y-51250D01*
X105750Y-50750D02*
X106500Y-50750D01*
X105250Y-50250D02*
X105750Y-50750D01*
X105250Y-46750D02*
X105250Y-48000D01*
X105250Y-48000D02*
X105250Y-50250D01*
X105750Y-46250D02*
X105250Y-46750D01*
X105750Y-45000D02*
X105750Y-45750D01*
X105750Y-45750D02*
X106250Y-46250D01*
X104000Y-45000D02*
X105750Y-45000D01*
M02*
