G04 (created by PCBNEW (22-Jun-2014 BZR 4027)-stable) date Sun 09 Jul 2017 03:14:30 PM CDT*
%MOIN*%
G04 Gerber Fmt 3.4, Leading zero omitted, Abs format*
%FSLAX34Y34*%
G01*
G70*
G90*
G04 APERTURE LIST*
%ADD10C,0.00590551*%
%ADD11C,0.006*%
%ADD12C,0.01*%
%ADD13C,0.005*%
G04 APERTURE END LIST*
G54D10*
G54D11*
X107764Y-43571D02*
X107764Y-43271D01*
X107935Y-43571D01*
X107935Y-43271D01*
X108250Y-43542D02*
X108235Y-43557D01*
X108192Y-43571D01*
X108164Y-43571D01*
X108121Y-43557D01*
X108092Y-43528D01*
X108078Y-43500D01*
X108064Y-43442D01*
X108064Y-43400D01*
X108078Y-43342D01*
X108092Y-43314D01*
X108121Y-43285D01*
X108164Y-43271D01*
X108192Y-43271D01*
X108235Y-43285D01*
X108250Y-43300D01*
X97764Y-43571D02*
X97764Y-43271D01*
X97935Y-43571D01*
X97935Y-43271D01*
X98250Y-43542D02*
X98235Y-43557D01*
X98192Y-43571D01*
X98164Y-43571D01*
X98121Y-43557D01*
X98092Y-43528D01*
X98078Y-43500D01*
X98064Y-43442D01*
X98064Y-43400D01*
X98078Y-43342D01*
X98092Y-43314D01*
X98121Y-43285D01*
X98164Y-43271D01*
X98192Y-43271D01*
X98235Y-43285D01*
X98250Y-43300D01*
X107207Y-52457D02*
X107207Y-52228D01*
X107021Y-51800D02*
X107021Y-51742D01*
X107035Y-51714D01*
X107064Y-51685D01*
X107121Y-51671D01*
X107221Y-51671D01*
X107278Y-51685D01*
X107307Y-51714D01*
X107321Y-51742D01*
X107321Y-51800D01*
X107307Y-51828D01*
X107278Y-51857D01*
X107221Y-51871D01*
X107121Y-51871D01*
X107064Y-51857D01*
X107035Y-51828D01*
X107021Y-51800D01*
X107021Y-51542D02*
X107264Y-51542D01*
X107292Y-51528D01*
X107307Y-51514D01*
X107321Y-51485D01*
X107321Y-51428D01*
X107307Y-51399D01*
X107292Y-51385D01*
X107264Y-51371D01*
X107021Y-51371D01*
X107021Y-51271D02*
X107021Y-51099D01*
X107321Y-51185D02*
X107021Y-51185D01*
X107207Y-50771D02*
X107207Y-50542D01*
X107321Y-50657D02*
X107092Y-50657D01*
X97657Y-45957D02*
X97885Y-45957D01*
X98028Y-46071D02*
X98028Y-45771D01*
X98171Y-46071D02*
X98171Y-45771D01*
X98342Y-46071D01*
X98342Y-45771D01*
X103242Y-51207D02*
X103471Y-51207D01*
X103842Y-51321D02*
X103842Y-51021D01*
X103985Y-51321D02*
X103985Y-51021D01*
X104157Y-51321D01*
X104157Y-51021D01*
X104528Y-51207D02*
X104757Y-51207D01*
X104642Y-51321D02*
X104642Y-51092D01*
X105607Y-51207D02*
X105835Y-51207D01*
X105721Y-51321D02*
X105721Y-51092D01*
X105978Y-51321D02*
X105978Y-51021D01*
X106121Y-51321D02*
X106121Y-51021D01*
X106292Y-51321D01*
X106292Y-51021D01*
G54D12*
X101000Y-44250D02*
X101000Y-44000D01*
X101000Y-44000D02*
X105000Y-44000D01*
X105000Y-44000D02*
X105000Y-44250D01*
X101000Y-45750D02*
X101000Y-44250D01*
X101000Y-44250D02*
X105000Y-44250D01*
X105000Y-44250D02*
X105000Y-45750D01*
X105000Y-45750D02*
X101000Y-45750D01*
X105000Y-52500D02*
X103000Y-52500D01*
X103000Y-52500D02*
X103000Y-51500D01*
X103000Y-51500D02*
X105000Y-51500D01*
X105000Y-51500D02*
X105000Y-52500D01*
X106500Y-51500D02*
X105500Y-51500D01*
X106500Y-52500D02*
X105500Y-52500D01*
X106500Y-51500D02*
X106500Y-52500D01*
X105500Y-52500D02*
X105500Y-51500D01*
X98500Y-46250D02*
X97500Y-46250D01*
X98500Y-47250D02*
X97500Y-47250D01*
X98500Y-46250D02*
X98500Y-47250D01*
X97500Y-47250D02*
X97500Y-46250D01*
X108500Y-51500D02*
X107500Y-51500D01*
X108500Y-52500D02*
X107500Y-52500D01*
X108500Y-51500D02*
X108500Y-52500D01*
X107500Y-52500D02*
X107500Y-51500D01*
X108500Y-50500D02*
X107500Y-50500D01*
X108500Y-51500D02*
X107500Y-51500D01*
X108500Y-50500D02*
X108500Y-51500D01*
X107500Y-51500D02*
X107500Y-50500D01*
X108500Y-43750D02*
X107500Y-43750D01*
X108500Y-44750D02*
X107500Y-44750D01*
X108500Y-43750D02*
X108500Y-44750D01*
X107500Y-44750D02*
X107500Y-43750D01*
X98500Y-43750D02*
X97500Y-43750D01*
X98500Y-44750D02*
X97500Y-44750D01*
X98500Y-43750D02*
X98500Y-44750D01*
X97500Y-44750D02*
X97500Y-43750D01*
X108000Y-45500D02*
X108000Y-45900D01*
X108000Y-45900D02*
X108400Y-45900D01*
X108400Y-45900D02*
X108400Y-49100D01*
X108400Y-49100D02*
X107600Y-49100D01*
X107600Y-49100D02*
X107600Y-45900D01*
X107600Y-45900D02*
X108000Y-45900D01*
X108000Y-49500D02*
X108000Y-49100D01*
X105698Y-48448D02*
X106801Y-48448D01*
X106801Y-49551D02*
G75*
G03X106801Y-48448I-551J551D01*
G74*
G01*
X105698Y-49551D02*
G75*
G03X106801Y-49551I551J551D01*
G74*
G01*
X105698Y-48448D02*
G75*
G03X105698Y-49551I551J-551D01*
G74*
G01*
X103750Y-46250D02*
X103750Y-47000D01*
X103750Y-49500D02*
X103750Y-50250D01*
X104250Y-49250D02*
X103250Y-49250D01*
X103250Y-47000D02*
X103250Y-49500D01*
X104250Y-47000D02*
X103250Y-47000D01*
X104250Y-49500D02*
X103250Y-49500D01*
X104250Y-47000D02*
X104250Y-49500D01*
X99850Y-43350D02*
X99850Y-45400D01*
X100650Y-43350D02*
X100650Y-45400D01*
X100650Y-45400D02*
X99850Y-45400D01*
X99850Y-43350D02*
X100650Y-43350D01*
X105350Y-43350D02*
X105350Y-45400D01*
X106150Y-43350D02*
X106150Y-45400D01*
X106150Y-45400D02*
X105350Y-45400D01*
X105350Y-43350D02*
X106150Y-43350D01*
X98728Y-53265D02*
X102272Y-53265D01*
X98728Y-54643D02*
X102272Y-54643D01*
X102272Y-54643D02*
X102272Y-48934D01*
X102272Y-48934D02*
X98728Y-48934D01*
X98728Y-48934D02*
X98728Y-54643D01*
X98500Y-51500D02*
X97500Y-51500D01*
X98500Y-52500D02*
X97500Y-52500D01*
X98500Y-51500D02*
X98500Y-52500D01*
X97500Y-52500D02*
X97500Y-51500D01*
X98500Y-50500D02*
X97500Y-50500D01*
X98500Y-51500D02*
X97500Y-51500D01*
X98500Y-50500D02*
X98500Y-51500D01*
X97500Y-51500D02*
X97500Y-50500D01*
X100750Y-46750D02*
G75*
G03X100750Y-46750I-1000J0D01*
G74*
G01*
X107250Y-46750D02*
G75*
G03X107250Y-46750I-1000J0D01*
G74*
G01*
G54D11*
X104021Y-43471D02*
X104021Y-43714D01*
X104035Y-43742D01*
X104050Y-43757D01*
X104078Y-43771D01*
X104135Y-43771D01*
X104164Y-43757D01*
X104178Y-43742D01*
X104192Y-43714D01*
X104192Y-43471D01*
X104492Y-43771D02*
X104321Y-43771D01*
X104407Y-43771D02*
X104407Y-43471D01*
X104378Y-43514D01*
X104350Y-43542D01*
X104321Y-43557D01*
X101421Y-43471D02*
X101621Y-43471D01*
X101492Y-43771D01*
X101750Y-43771D02*
X101807Y-43771D01*
X101835Y-43757D01*
X101850Y-43742D01*
X101878Y-43700D01*
X101892Y-43642D01*
X101892Y-43528D01*
X101878Y-43500D01*
X101864Y-43485D01*
X101835Y-43471D01*
X101778Y-43471D01*
X101750Y-43485D01*
X101735Y-43500D01*
X101721Y-43528D01*
X101721Y-43600D01*
X101735Y-43628D01*
X101750Y-43642D01*
X101778Y-43657D01*
X101835Y-43657D01*
X101864Y-43642D01*
X101878Y-43628D01*
X101892Y-43600D01*
X102078Y-43471D02*
X102107Y-43471D01*
X102135Y-43485D01*
X102150Y-43500D01*
X102164Y-43528D01*
X102178Y-43585D01*
X102178Y-43657D01*
X102164Y-43714D01*
X102150Y-43742D01*
X102135Y-43757D01*
X102107Y-43771D01*
X102078Y-43771D01*
X102050Y-43757D01*
X102035Y-43742D01*
X102021Y-43714D01*
X102007Y-43657D01*
X102007Y-43585D01*
X102021Y-43528D01*
X102035Y-43500D01*
X102050Y-43485D01*
X102078Y-43471D01*
X102450Y-43471D02*
X102307Y-43471D01*
X102292Y-43614D01*
X102307Y-43600D01*
X102335Y-43585D01*
X102407Y-43585D01*
X102435Y-43600D01*
X102450Y-43614D01*
X102464Y-43642D01*
X102464Y-43714D01*
X102450Y-43742D01*
X102435Y-43757D01*
X102407Y-43771D01*
X102335Y-43771D01*
X102307Y-43757D01*
X102292Y-43742D01*
X108121Y-46750D02*
X107978Y-46850D01*
X108121Y-46921D02*
X107821Y-46921D01*
X107821Y-46807D01*
X107835Y-46778D01*
X107850Y-46764D01*
X107878Y-46750D01*
X107921Y-46750D01*
X107950Y-46764D01*
X107964Y-46778D01*
X107978Y-46807D01*
X107978Y-46921D01*
X108121Y-46464D02*
X108121Y-46635D01*
X108121Y-46550D02*
X107821Y-46550D01*
X107864Y-46578D01*
X107892Y-46607D01*
X107907Y-46635D01*
X107850Y-48671D02*
X107835Y-48657D01*
X107821Y-48628D01*
X107821Y-48557D01*
X107835Y-48528D01*
X107850Y-48514D01*
X107878Y-48500D01*
X107907Y-48500D01*
X107950Y-48514D01*
X108121Y-48685D01*
X108121Y-48500D01*
X107850Y-48385D02*
X107835Y-48371D01*
X107821Y-48342D01*
X107821Y-48271D01*
X107835Y-48242D01*
X107850Y-48228D01*
X107878Y-48214D01*
X107907Y-48214D01*
X107950Y-48228D01*
X108121Y-48400D01*
X108121Y-48214D01*
X107821Y-48028D02*
X107821Y-48000D01*
X107835Y-47971D01*
X107850Y-47957D01*
X107878Y-47942D01*
X107935Y-47928D01*
X108007Y-47928D01*
X108064Y-47942D01*
X108092Y-47957D01*
X108107Y-47971D01*
X108121Y-48000D01*
X108121Y-48028D01*
X108107Y-48057D01*
X108092Y-48071D01*
X108064Y-48085D01*
X108007Y-48100D01*
X107935Y-48100D01*
X107878Y-48085D01*
X107850Y-48071D01*
X107835Y-48057D01*
X107821Y-48028D01*
X106028Y-50271D02*
X106028Y-49971D01*
X106100Y-49971D01*
X106142Y-49985D01*
X106171Y-50014D01*
X106185Y-50042D01*
X106200Y-50100D01*
X106200Y-50142D01*
X106185Y-50200D01*
X106171Y-50228D01*
X106142Y-50257D01*
X106100Y-50271D01*
X106028Y-50271D01*
X106314Y-50000D02*
X106328Y-49985D01*
X106357Y-49971D01*
X106428Y-49971D01*
X106457Y-49985D01*
X106471Y-50000D01*
X106485Y-50028D01*
X106485Y-50057D01*
X106471Y-50100D01*
X106300Y-50271D01*
X106485Y-50271D01*
G54D13*
X104701Y-48434D02*
X104451Y-48434D01*
X104451Y-48375D01*
X104463Y-48339D01*
X104486Y-48315D01*
X104510Y-48303D01*
X104558Y-48291D01*
X104594Y-48291D01*
X104641Y-48303D01*
X104665Y-48315D01*
X104689Y-48339D01*
X104701Y-48375D01*
X104701Y-48434D01*
X104701Y-48053D02*
X104701Y-48196D01*
X104701Y-48125D02*
X104451Y-48125D01*
X104486Y-48148D01*
X104510Y-48172D01*
X104522Y-48196D01*
X103851Y-48744D02*
X103601Y-48744D01*
X103601Y-48684D01*
X103613Y-48648D01*
X103636Y-48625D01*
X103660Y-48613D01*
X103708Y-48601D01*
X103744Y-48601D01*
X103791Y-48613D01*
X103815Y-48625D01*
X103839Y-48648D01*
X103851Y-48684D01*
X103851Y-48744D01*
X103851Y-48494D02*
X103601Y-48494D01*
X103601Y-48327D02*
X103601Y-48279D01*
X103613Y-48255D01*
X103636Y-48232D01*
X103684Y-48220D01*
X103767Y-48220D01*
X103815Y-48232D01*
X103839Y-48255D01*
X103851Y-48279D01*
X103851Y-48327D01*
X103839Y-48351D01*
X103815Y-48375D01*
X103767Y-48386D01*
X103684Y-48386D01*
X103636Y-48375D01*
X103613Y-48351D01*
X103601Y-48327D01*
X103851Y-48113D02*
X103601Y-48113D01*
X103601Y-48053D01*
X103613Y-48017D01*
X103636Y-47994D01*
X103660Y-47982D01*
X103708Y-47970D01*
X103744Y-47970D01*
X103791Y-47982D01*
X103815Y-47994D01*
X103839Y-48017D01*
X103851Y-48053D01*
X103851Y-48113D01*
X103720Y-47863D02*
X103720Y-47779D01*
X103851Y-47744D02*
X103851Y-47863D01*
X103601Y-47863D01*
X103601Y-47744D01*
X99677Y-45191D02*
X99689Y-45203D01*
X99701Y-45239D01*
X99701Y-45263D01*
X99689Y-45298D01*
X99665Y-45322D01*
X99641Y-45334D01*
X99594Y-45346D01*
X99558Y-45346D01*
X99510Y-45334D01*
X99486Y-45322D01*
X99463Y-45298D01*
X99451Y-45263D01*
X99451Y-45239D01*
X99463Y-45203D01*
X99475Y-45191D01*
X99475Y-45096D02*
X99463Y-45084D01*
X99451Y-45060D01*
X99451Y-45001D01*
X99463Y-44977D01*
X99475Y-44965D01*
X99498Y-44953D01*
X99522Y-44953D01*
X99558Y-44965D01*
X99701Y-45108D01*
X99701Y-44953D01*
X99451Y-44260D02*
X99451Y-44236D01*
X99463Y-44213D01*
X99475Y-44201D01*
X99498Y-44189D01*
X99546Y-44177D01*
X99605Y-44177D01*
X99653Y-44189D01*
X99677Y-44201D01*
X99689Y-44213D01*
X99701Y-44236D01*
X99701Y-44260D01*
X99689Y-44284D01*
X99677Y-44296D01*
X99653Y-44308D01*
X99605Y-44320D01*
X99546Y-44320D01*
X99498Y-44308D01*
X99475Y-44296D01*
X99463Y-44284D01*
X99451Y-44260D01*
X99677Y-44070D02*
X99689Y-44058D01*
X99701Y-44070D01*
X99689Y-44082D01*
X99677Y-44070D01*
X99701Y-44070D01*
X99701Y-43820D02*
X99701Y-43963D01*
X99701Y-43891D02*
X99451Y-43891D01*
X99486Y-43915D01*
X99510Y-43939D01*
X99522Y-43963D01*
X99534Y-43605D02*
X99701Y-43605D01*
X99534Y-43713D02*
X99665Y-43713D01*
X99689Y-43701D01*
X99701Y-43677D01*
X99701Y-43641D01*
X99689Y-43617D01*
X99677Y-43605D01*
X99570Y-43403D02*
X99570Y-43486D01*
X99701Y-43486D02*
X99451Y-43486D01*
X99451Y-43367D01*
X106527Y-45191D02*
X106539Y-45203D01*
X106551Y-45239D01*
X106551Y-45263D01*
X106539Y-45298D01*
X106515Y-45322D01*
X106491Y-45334D01*
X106444Y-45346D01*
X106408Y-45346D01*
X106360Y-45334D01*
X106336Y-45322D01*
X106313Y-45298D01*
X106301Y-45263D01*
X106301Y-45239D01*
X106313Y-45203D01*
X106325Y-45191D01*
X106384Y-44977D02*
X106551Y-44977D01*
X106289Y-45036D02*
X106467Y-45096D01*
X106467Y-44941D01*
X106301Y-44260D02*
X106301Y-44236D01*
X106313Y-44213D01*
X106325Y-44201D01*
X106348Y-44189D01*
X106396Y-44177D01*
X106455Y-44177D01*
X106503Y-44189D01*
X106527Y-44201D01*
X106539Y-44213D01*
X106551Y-44236D01*
X106551Y-44260D01*
X106539Y-44284D01*
X106527Y-44296D01*
X106503Y-44308D01*
X106455Y-44320D01*
X106396Y-44320D01*
X106348Y-44308D01*
X106325Y-44296D01*
X106313Y-44284D01*
X106301Y-44260D01*
X106527Y-44070D02*
X106539Y-44058D01*
X106551Y-44070D01*
X106539Y-44082D01*
X106527Y-44070D01*
X106551Y-44070D01*
X106551Y-43820D02*
X106551Y-43963D01*
X106551Y-43891D02*
X106301Y-43891D01*
X106336Y-43915D01*
X106360Y-43939D01*
X106372Y-43963D01*
X106384Y-43605D02*
X106551Y-43605D01*
X106384Y-43713D02*
X106515Y-43713D01*
X106539Y-43701D01*
X106551Y-43677D01*
X106551Y-43641D01*
X106539Y-43617D01*
X106527Y-43605D01*
X106420Y-43403D02*
X106420Y-43486D01*
X106551Y-43486D02*
X106301Y-43486D01*
X106301Y-43367D01*
G54D11*
X101135Y-54342D02*
X101121Y-54357D01*
X101078Y-54371D01*
X101050Y-54371D01*
X101007Y-54357D01*
X100978Y-54328D01*
X100964Y-54300D01*
X100950Y-54242D01*
X100950Y-54200D01*
X100964Y-54142D01*
X100978Y-54114D01*
X101007Y-54085D01*
X101050Y-54071D01*
X101078Y-54071D01*
X101121Y-54085D01*
X101135Y-54100D01*
X101321Y-54071D02*
X101378Y-54071D01*
X101407Y-54085D01*
X101435Y-54114D01*
X101450Y-54171D01*
X101450Y-54271D01*
X101435Y-54328D01*
X101407Y-54357D01*
X101378Y-54371D01*
X101321Y-54371D01*
X101292Y-54357D01*
X101264Y-54328D01*
X101250Y-54271D01*
X101250Y-54171D01*
X101264Y-54114D01*
X101292Y-54085D01*
X101321Y-54071D01*
X101578Y-54371D02*
X101578Y-54071D01*
X101750Y-54371D01*
X101750Y-54071D01*
X102050Y-54371D02*
X101878Y-54371D01*
X101964Y-54371D02*
X101964Y-54071D01*
X101935Y-54114D01*
X101907Y-54142D01*
X101878Y-54157D01*
X98250Y-50128D02*
X98235Y-50114D01*
X98221Y-50085D01*
X98221Y-50014D01*
X98235Y-49985D01*
X98250Y-49971D01*
X98278Y-49957D01*
X98307Y-49957D01*
X98350Y-49971D01*
X98521Y-50142D01*
X98521Y-49957D01*
X98492Y-49828D02*
X98507Y-49814D01*
X98521Y-49828D01*
X98507Y-49842D01*
X98492Y-49828D01*
X98521Y-49828D01*
X98521Y-49528D02*
X98521Y-49699D01*
X98521Y-49614D02*
X98221Y-49614D01*
X98264Y-49642D01*
X98292Y-49671D01*
X98307Y-49699D01*
X98521Y-49428D02*
X98321Y-49271D01*
X98321Y-49428D02*
X98521Y-49271D01*
X98221Y-49014D02*
X98221Y-49157D01*
X98364Y-49171D01*
X98350Y-49157D01*
X98335Y-49128D01*
X98335Y-49057D01*
X98350Y-49028D01*
X98364Y-49014D01*
X98392Y-49000D01*
X98464Y-49000D01*
X98492Y-49014D01*
X98507Y-49028D01*
X98521Y-49057D01*
X98521Y-49128D01*
X98507Y-49157D01*
X98492Y-49171D01*
X98492Y-48871D02*
X98507Y-48857D01*
X98521Y-48871D01*
X98507Y-48885D01*
X98492Y-48871D01*
X98521Y-48871D01*
X98221Y-48585D02*
X98221Y-48728D01*
X98364Y-48742D01*
X98350Y-48728D01*
X98335Y-48700D01*
X98335Y-48628D01*
X98350Y-48600D01*
X98364Y-48585D01*
X98392Y-48571D01*
X98464Y-48571D01*
X98492Y-48585D01*
X98507Y-48600D01*
X98521Y-48628D01*
X98521Y-48700D01*
X98507Y-48728D01*
X98492Y-48742D01*
X98521Y-48442D02*
X98321Y-48442D01*
X98350Y-48442D02*
X98335Y-48428D01*
X98321Y-48400D01*
X98321Y-48357D01*
X98335Y-48328D01*
X98364Y-48314D01*
X98521Y-48314D01*
X98364Y-48314D02*
X98335Y-48300D01*
X98321Y-48271D01*
X98321Y-48228D01*
X98335Y-48200D01*
X98364Y-48185D01*
X98521Y-48185D01*
X98521Y-48042D02*
X98321Y-48042D01*
X98350Y-48042D02*
X98335Y-48028D01*
X98321Y-48000D01*
X98321Y-47957D01*
X98335Y-47928D01*
X98364Y-47914D01*
X98521Y-47914D01*
X98364Y-47914D02*
X98335Y-47900D01*
X98321Y-47871D01*
X98321Y-47828D01*
X98335Y-47800D01*
X98364Y-47785D01*
X98521Y-47785D01*
G54D13*
X99227Y-46491D02*
X99239Y-46503D01*
X99251Y-46539D01*
X99251Y-46563D01*
X99239Y-46598D01*
X99215Y-46622D01*
X99191Y-46634D01*
X99144Y-46646D01*
X99108Y-46646D01*
X99060Y-46634D01*
X99036Y-46622D01*
X99013Y-46598D01*
X99001Y-46563D01*
X99001Y-46539D01*
X99013Y-46503D01*
X99025Y-46491D01*
X99251Y-46253D02*
X99251Y-46396D01*
X99251Y-46325D02*
X99001Y-46325D01*
X99036Y-46348D01*
X99060Y-46372D01*
X99072Y-46396D01*
X100501Y-47017D02*
X100501Y-47160D01*
X100501Y-47089D02*
X100251Y-47089D01*
X100286Y-47113D01*
X100310Y-47136D01*
X100322Y-47160D01*
X100251Y-46863D02*
X100251Y-46839D01*
X100263Y-46815D01*
X100275Y-46803D01*
X100298Y-46791D01*
X100346Y-46779D01*
X100405Y-46779D01*
X100453Y-46791D01*
X100477Y-46803D01*
X100489Y-46815D01*
X100501Y-46839D01*
X100501Y-46863D01*
X100489Y-46886D01*
X100477Y-46898D01*
X100453Y-46910D01*
X100405Y-46922D01*
X100346Y-46922D01*
X100298Y-46910D01*
X100275Y-46898D01*
X100263Y-46886D01*
X100251Y-46863D01*
X100334Y-46565D02*
X100501Y-46565D01*
X100334Y-46672D02*
X100465Y-46672D01*
X100489Y-46660D01*
X100501Y-46636D01*
X100501Y-46601D01*
X100489Y-46577D01*
X100477Y-46565D01*
X100370Y-46363D02*
X100370Y-46446D01*
X100501Y-46446D02*
X100251Y-46446D01*
X100251Y-46327D01*
G54D11*
X99107Y-47264D02*
X99107Y-47035D01*
X99221Y-47150D02*
X98992Y-47150D01*
G54D13*
X105727Y-46591D02*
X105739Y-46603D01*
X105751Y-46639D01*
X105751Y-46663D01*
X105739Y-46698D01*
X105715Y-46722D01*
X105691Y-46734D01*
X105644Y-46746D01*
X105608Y-46746D01*
X105560Y-46734D01*
X105536Y-46722D01*
X105513Y-46698D01*
X105501Y-46663D01*
X105501Y-46639D01*
X105513Y-46603D01*
X105525Y-46591D01*
X105501Y-46508D02*
X105501Y-46353D01*
X105596Y-46436D01*
X105596Y-46401D01*
X105608Y-46377D01*
X105620Y-46365D01*
X105644Y-46353D01*
X105703Y-46353D01*
X105727Y-46365D01*
X105739Y-46377D01*
X105751Y-46401D01*
X105751Y-46472D01*
X105739Y-46496D01*
X105727Y-46508D01*
X107001Y-47017D02*
X107001Y-47160D01*
X107001Y-47089D02*
X106751Y-47089D01*
X106786Y-47113D01*
X106810Y-47136D01*
X106822Y-47160D01*
X106751Y-46863D02*
X106751Y-46839D01*
X106763Y-46815D01*
X106775Y-46803D01*
X106798Y-46791D01*
X106846Y-46779D01*
X106905Y-46779D01*
X106953Y-46791D01*
X106977Y-46803D01*
X106989Y-46815D01*
X107001Y-46839D01*
X107001Y-46863D01*
X106989Y-46886D01*
X106977Y-46898D01*
X106953Y-46910D01*
X106905Y-46922D01*
X106846Y-46922D01*
X106798Y-46910D01*
X106775Y-46898D01*
X106763Y-46886D01*
X106751Y-46863D01*
X106834Y-46565D02*
X107001Y-46565D01*
X106834Y-46672D02*
X106965Y-46672D01*
X106989Y-46660D01*
X107001Y-46636D01*
X107001Y-46601D01*
X106989Y-46577D01*
X106977Y-46565D01*
X106870Y-46363D02*
X106870Y-46446D01*
X107001Y-46446D02*
X106751Y-46446D01*
X106751Y-46327D01*
G54D11*
X105657Y-47314D02*
X105657Y-47085D01*
X105771Y-47200D02*
X105542Y-47200D01*
M02*
