M48
;DRILL file {Pcbnew (22-Jun-2014 BZR 4027)-stable} date Sun 09 Jul 2017 03:14:32 PM CDT
;FORMAT={-:-/ absolute / inch / decimal}
FMAT,2
INCH,TZ
T1C0.032
T2C0.040
T3C0.108
%
G90
G05
M72
T1
X9.975Y-4.625
X9.975Y-4.725
X10.025Y-4.375
X10.025Y-4.5
X10.575Y-4.375
X10.575Y-4.5
X10.625Y-4.625
X10.625Y-4.725
X10.8Y-4.55
X10.8Y-4.95
T2
X9.8Y-4.425
X9.8Y-4.675
X9.8Y-5.1
X9.8Y-5.2
X10.2Y-4.5
X10.3Y-4.5
X10.35Y-5.2
X10.375Y-4.625
X10.375Y-5.025
X10.4Y-4.5
X10.45Y-5.2
X10.6Y-5.2
X10.625Y-4.85
X10.625Y-4.95
X10.8Y-4.425
X10.8Y-5.1
X10.8Y-5.2
T3
X10.05Y-4.925
X10.05Y-5.16
X10.235Y-5.045
T0
M30
