G04 (created by PCBNEW (22-Jun-2014 BZR 4027)-stable) date Sun 09 Jul 2017 03:14:30 PM CDT*
%MOIN*%
G04 Gerber Fmt 3.4, Leading zero omitted, Abs format*
%FSLAX34Y34*%
G01*
G70*
G90*
G04 APERTURE LIST*
%ADD10C,0.00590551*%
%ADD11R,0.069X0.069*%
%ADD12O,0.069X0.069*%
%ADD13C,0.069*%
%ADD14O,0.059X0.059*%
%ADD15R,0.059X0.064*%
%ADD16R,0.16X0.16*%
%ADD17C,0.16*%
%ADD18R,0.059X0.059*%
%ADD19C,0.01*%
G04 APERTURE END LIST*
G54D10*
G54D11*
X102000Y-45000D03*
G54D12*
X103000Y-45000D03*
X104000Y-45000D03*
G54D11*
X104500Y-52000D03*
G54D13*
X103500Y-52000D03*
G54D11*
X106000Y-52000D03*
X98000Y-46750D03*
X108000Y-52000D03*
X108000Y-51000D03*
X108000Y-44250D03*
X98000Y-44250D03*
G54D14*
X108000Y-45500D03*
X108000Y-49500D03*
G54D11*
X106250Y-49500D03*
G54D12*
X106250Y-48500D03*
G54D11*
X103750Y-50250D03*
G54D12*
X103750Y-46250D03*
G54D15*
X100250Y-43800D03*
X100250Y-44950D03*
X105750Y-43800D03*
X105750Y-44950D03*
G54D16*
X100500Y-49250D03*
G54D17*
X100500Y-51600D03*
X102350Y-50450D03*
G54D11*
X98000Y-52000D03*
X98000Y-51000D03*
G54D18*
X99750Y-47250D03*
G54D14*
X99750Y-46250D03*
G54D18*
X106250Y-47250D03*
G54D14*
X106250Y-46250D03*
G54D10*
G36*
X108450Y-50427D02*
X108394Y-50404D01*
X108112Y-50405D01*
X108050Y-50467D01*
X108050Y-50950D01*
X108057Y-50950D01*
X108057Y-51050D01*
X108050Y-51050D01*
X108050Y-51057D01*
X107950Y-51057D01*
X107950Y-51050D01*
X107950Y-50950D01*
X107950Y-50467D01*
X107887Y-50405D01*
X107605Y-50404D01*
X107513Y-50442D01*
X107443Y-50513D01*
X107405Y-50605D01*
X107404Y-50704D01*
X107405Y-50887D01*
X107467Y-50950D01*
X107950Y-50950D01*
X107950Y-51050D01*
X107467Y-51050D01*
X107405Y-51112D01*
X107404Y-51295D01*
X107405Y-51394D01*
X107443Y-51486D01*
X107456Y-51500D01*
X107443Y-51513D01*
X107405Y-51605D01*
X107404Y-51704D01*
X107404Y-52394D01*
X107427Y-52450D01*
X106845Y-52450D01*
X106845Y-49795D01*
X106845Y-49105D01*
X106807Y-49013D01*
X106736Y-48943D01*
X106679Y-48919D01*
X106799Y-48739D01*
X106845Y-48511D01*
X106845Y-48488D01*
X106799Y-48260D01*
X106795Y-48253D01*
X106795Y-47594D01*
X106795Y-46905D01*
X106757Y-46813D01*
X106686Y-46743D01*
X106594Y-46705D01*
X106547Y-46705D01*
X106635Y-46646D01*
X106753Y-46469D01*
X106795Y-46260D01*
X106795Y-46239D01*
X106753Y-46030D01*
X106635Y-45853D01*
X106458Y-45735D01*
X106295Y-45703D01*
X106295Y-45220D01*
X106295Y-44580D01*
X106295Y-44169D01*
X106295Y-43912D01*
X106232Y-43850D01*
X105800Y-43850D01*
X105800Y-44307D01*
X105862Y-44370D01*
X105995Y-44370D01*
X106094Y-44369D01*
X106186Y-44331D01*
X106257Y-44261D01*
X106295Y-44169D01*
X106295Y-44580D01*
X106257Y-44488D01*
X106186Y-44418D01*
X106094Y-44380D01*
X105995Y-44379D01*
X105700Y-44379D01*
X105700Y-44307D01*
X105700Y-43850D01*
X105267Y-43850D01*
X105205Y-43912D01*
X105204Y-44169D01*
X105242Y-44261D01*
X105313Y-44331D01*
X105405Y-44369D01*
X105504Y-44370D01*
X105637Y-44370D01*
X105700Y-44307D01*
X105700Y-44379D01*
X105405Y-44379D01*
X105313Y-44417D01*
X105243Y-44488D01*
X105205Y-44580D01*
X105204Y-44679D01*
X105204Y-45319D01*
X105242Y-45411D01*
X105313Y-45481D01*
X105405Y-45519D01*
X105504Y-45520D01*
X106094Y-45520D01*
X106186Y-45482D01*
X106256Y-45411D01*
X106294Y-45319D01*
X106295Y-45220D01*
X106295Y-45703D01*
X106250Y-45694D01*
X106041Y-45735D01*
X105864Y-45853D01*
X105746Y-46030D01*
X105705Y-46239D01*
X105705Y-46260D01*
X105746Y-46469D01*
X105864Y-46646D01*
X105952Y-46705D01*
X105905Y-46705D01*
X105813Y-46743D01*
X105742Y-46813D01*
X105704Y-46905D01*
X105705Y-47137D01*
X105767Y-47200D01*
X106200Y-47200D01*
X106200Y-47192D01*
X106300Y-47192D01*
X106300Y-47200D01*
X106732Y-47200D01*
X106795Y-47137D01*
X106795Y-46905D01*
X106795Y-47594D01*
X106795Y-47362D01*
X106732Y-47300D01*
X106300Y-47300D01*
X106300Y-47732D01*
X106362Y-47795D01*
X106495Y-47795D01*
X106594Y-47794D01*
X106686Y-47756D01*
X106757Y-47686D01*
X106795Y-47594D01*
X106795Y-48253D01*
X106670Y-48067D01*
X106477Y-47938D01*
X106250Y-47893D01*
X106200Y-47903D01*
X106200Y-47732D01*
X106200Y-47300D01*
X105767Y-47300D01*
X105705Y-47362D01*
X105704Y-47594D01*
X105742Y-47686D01*
X105813Y-47756D01*
X105905Y-47794D01*
X106004Y-47795D01*
X106137Y-47795D01*
X106200Y-47732D01*
X106200Y-47903D01*
X106022Y-47938D01*
X105829Y-48067D01*
X105700Y-48260D01*
X105655Y-48488D01*
X105655Y-48511D01*
X105700Y-48739D01*
X105820Y-48919D01*
X105763Y-48942D01*
X105693Y-49013D01*
X105655Y-49105D01*
X105654Y-49204D01*
X105654Y-49894D01*
X105692Y-49986D01*
X105763Y-50056D01*
X105855Y-50094D01*
X105954Y-50095D01*
X106644Y-50095D01*
X106736Y-50057D01*
X106806Y-49986D01*
X106844Y-49894D01*
X106845Y-49795D01*
X106845Y-52450D01*
X106572Y-52450D01*
X106594Y-52394D01*
X106595Y-52295D01*
X106595Y-51704D01*
X106594Y-51605D01*
X106556Y-51513D01*
X106486Y-51442D01*
X106394Y-51404D01*
X106112Y-51405D01*
X106050Y-51467D01*
X106050Y-51950D01*
X106532Y-51950D01*
X106595Y-51887D01*
X106595Y-51704D01*
X106595Y-52295D01*
X106595Y-52112D01*
X106532Y-52050D01*
X106050Y-52050D01*
X106050Y-52057D01*
X105950Y-52057D01*
X105950Y-52050D01*
X105950Y-51950D01*
X105950Y-51467D01*
X105887Y-51405D01*
X105605Y-51404D01*
X105513Y-51442D01*
X105443Y-51513D01*
X105405Y-51605D01*
X105404Y-51704D01*
X105405Y-51887D01*
X105467Y-51950D01*
X105950Y-51950D01*
X105950Y-52050D01*
X105467Y-52050D01*
X105405Y-52112D01*
X105404Y-52295D01*
X105405Y-52394D01*
X105427Y-52450D01*
X105072Y-52450D01*
X105094Y-52394D01*
X105095Y-52295D01*
X105095Y-51704D01*
X105094Y-51605D01*
X105056Y-51513D01*
X104986Y-51442D01*
X104894Y-51404D01*
X104612Y-51405D01*
X104595Y-51422D01*
X104595Y-45011D01*
X104595Y-44988D01*
X104549Y-44760D01*
X104420Y-44567D01*
X104227Y-44438D01*
X104000Y-44393D01*
X103772Y-44438D01*
X103579Y-44567D01*
X103499Y-44686D01*
X103420Y-44567D01*
X103227Y-44438D01*
X103000Y-44393D01*
X102772Y-44438D01*
X102579Y-44567D01*
X102557Y-44513D01*
X102486Y-44443D01*
X102394Y-44405D01*
X102295Y-44404D01*
X102112Y-44405D01*
X102050Y-44467D01*
X102050Y-44950D01*
X102057Y-44950D01*
X102057Y-45050D01*
X102050Y-45050D01*
X102050Y-45532D01*
X102112Y-45595D01*
X102295Y-45595D01*
X102394Y-45594D01*
X102486Y-45556D01*
X102557Y-45486D01*
X102579Y-45432D01*
X102772Y-45561D01*
X103000Y-45606D01*
X103227Y-45561D01*
X103420Y-45432D01*
X103500Y-45313D01*
X103579Y-45432D01*
X103772Y-45561D01*
X104000Y-45606D01*
X104227Y-45561D01*
X104420Y-45432D01*
X104549Y-45239D01*
X104595Y-45011D01*
X104595Y-51422D01*
X104550Y-51467D01*
X104550Y-51950D01*
X105032Y-51950D01*
X105095Y-51887D01*
X105095Y-51704D01*
X105095Y-52295D01*
X105095Y-52112D01*
X105032Y-52050D01*
X104550Y-52050D01*
X104550Y-52057D01*
X104450Y-52057D01*
X104450Y-52050D01*
X104442Y-52050D01*
X104442Y-51950D01*
X104450Y-51950D01*
X104450Y-51467D01*
X104387Y-51405D01*
X104345Y-51404D01*
X104345Y-50545D01*
X104345Y-49855D01*
X104345Y-49855D01*
X104345Y-46261D01*
X104345Y-46238D01*
X104299Y-46010D01*
X104170Y-45817D01*
X103977Y-45688D01*
X103750Y-45643D01*
X103522Y-45688D01*
X103329Y-45817D01*
X103200Y-46010D01*
X103155Y-46238D01*
X103155Y-46261D01*
X103200Y-46489D01*
X103329Y-46682D01*
X103522Y-46811D01*
X103750Y-46856D01*
X103977Y-46811D01*
X104170Y-46682D01*
X104299Y-46489D01*
X104345Y-46261D01*
X104345Y-49855D01*
X104307Y-49763D01*
X104236Y-49693D01*
X104144Y-49655D01*
X104045Y-49654D01*
X103355Y-49654D01*
X103263Y-49692D01*
X103193Y-49763D01*
X103179Y-49795D01*
X102945Y-49560D01*
X102559Y-49400D01*
X102142Y-49399D01*
X101950Y-49479D01*
X101950Y-45532D01*
X101950Y-45050D01*
X101950Y-44950D01*
X101950Y-44467D01*
X101887Y-44405D01*
X101704Y-44404D01*
X101605Y-44405D01*
X101513Y-44443D01*
X101442Y-44513D01*
X101404Y-44605D01*
X101405Y-44887D01*
X101467Y-44950D01*
X101950Y-44950D01*
X101950Y-45050D01*
X101467Y-45050D01*
X101405Y-45112D01*
X101404Y-45394D01*
X101442Y-45486D01*
X101513Y-45556D01*
X101605Y-45594D01*
X101704Y-45595D01*
X101887Y-45595D01*
X101950Y-45532D01*
X101950Y-49479D01*
X101756Y-49559D01*
X101550Y-49764D01*
X101550Y-48400D01*
X101512Y-48308D01*
X101441Y-48238D01*
X101349Y-48200D01*
X101250Y-48199D01*
X100795Y-48199D01*
X100795Y-45220D01*
X100795Y-44580D01*
X100795Y-44169D01*
X100795Y-43912D01*
X100732Y-43850D01*
X100300Y-43850D01*
X100300Y-44307D01*
X100362Y-44370D01*
X100495Y-44370D01*
X100594Y-44369D01*
X100686Y-44331D01*
X100757Y-44261D01*
X100795Y-44169D01*
X100795Y-44580D01*
X100757Y-44488D01*
X100686Y-44418D01*
X100594Y-44380D01*
X100495Y-44379D01*
X100200Y-44379D01*
X100200Y-44307D01*
X100200Y-43850D01*
X99767Y-43850D01*
X99705Y-43912D01*
X99704Y-44169D01*
X99742Y-44261D01*
X99813Y-44331D01*
X99905Y-44369D01*
X100004Y-44370D01*
X100137Y-44370D01*
X100200Y-44307D01*
X100200Y-44379D01*
X99905Y-44379D01*
X99813Y-44417D01*
X99743Y-44488D01*
X99705Y-44580D01*
X99704Y-44679D01*
X99704Y-45319D01*
X99742Y-45411D01*
X99813Y-45481D01*
X99905Y-45519D01*
X100004Y-45520D01*
X100594Y-45520D01*
X100686Y-45482D01*
X100756Y-45411D01*
X100794Y-45319D01*
X100795Y-45220D01*
X100795Y-48199D01*
X100612Y-48200D01*
X100550Y-48262D01*
X100550Y-49200D01*
X101487Y-49200D01*
X101550Y-49137D01*
X101550Y-48400D01*
X101550Y-49764D01*
X101550Y-49764D01*
X101550Y-49362D01*
X101487Y-49300D01*
X100550Y-49300D01*
X100550Y-50237D01*
X100612Y-50300D01*
X101250Y-50300D01*
X101300Y-50299D01*
X101299Y-50657D01*
X101459Y-51044D01*
X101754Y-51339D01*
X102140Y-51499D01*
X102557Y-51500D01*
X102944Y-51340D01*
X103239Y-51045D01*
X103327Y-50833D01*
X103355Y-50844D01*
X103454Y-50845D01*
X104144Y-50845D01*
X104236Y-50807D01*
X104306Y-50736D01*
X104344Y-50644D01*
X104345Y-50545D01*
X104345Y-51404D01*
X104105Y-51404D01*
X104013Y-51442D01*
X103943Y-51513D01*
X103917Y-51575D01*
X103837Y-51495D01*
X103618Y-51405D01*
X103382Y-51404D01*
X103163Y-51495D01*
X102995Y-51662D01*
X102905Y-51881D01*
X102904Y-52117D01*
X102995Y-52336D01*
X103108Y-52450D01*
X101134Y-52450D01*
X101389Y-52195D01*
X101549Y-51809D01*
X101550Y-51392D01*
X101390Y-51006D01*
X101095Y-50710D01*
X100709Y-50550D01*
X100450Y-50549D01*
X100450Y-50237D01*
X100450Y-49300D01*
X100450Y-49200D01*
X100450Y-48262D01*
X100387Y-48200D01*
X100295Y-48199D01*
X100295Y-47594D01*
X100295Y-46905D01*
X100257Y-46813D01*
X100186Y-46743D01*
X100094Y-46705D01*
X100047Y-46705D01*
X100135Y-46646D01*
X100253Y-46469D01*
X100295Y-46260D01*
X100295Y-46239D01*
X100253Y-46030D01*
X100135Y-45853D01*
X99958Y-45735D01*
X99750Y-45694D01*
X99541Y-45735D01*
X99364Y-45853D01*
X99246Y-46030D01*
X99205Y-46239D01*
X99205Y-46260D01*
X99246Y-46469D01*
X99364Y-46646D01*
X99452Y-46705D01*
X99405Y-46705D01*
X99313Y-46743D01*
X99242Y-46813D01*
X99204Y-46905D01*
X99205Y-47137D01*
X99267Y-47200D01*
X99700Y-47200D01*
X99700Y-47192D01*
X99800Y-47192D01*
X99800Y-47200D01*
X100232Y-47200D01*
X100295Y-47137D01*
X100295Y-46905D01*
X100295Y-47594D01*
X100295Y-47362D01*
X100232Y-47300D01*
X99800Y-47300D01*
X99800Y-47732D01*
X99862Y-47795D01*
X99995Y-47795D01*
X100094Y-47794D01*
X100186Y-47756D01*
X100257Y-47686D01*
X100295Y-47594D01*
X100295Y-48199D01*
X99749Y-48199D01*
X99700Y-48200D01*
X99700Y-47732D01*
X99700Y-47300D01*
X99267Y-47300D01*
X99205Y-47362D01*
X99204Y-47594D01*
X99242Y-47686D01*
X99313Y-47756D01*
X99405Y-47794D01*
X99504Y-47795D01*
X99637Y-47795D01*
X99700Y-47732D01*
X99700Y-48200D01*
X99650Y-48200D01*
X99558Y-48238D01*
X99487Y-48308D01*
X99449Y-48400D01*
X99450Y-49137D01*
X99512Y-49200D01*
X100450Y-49200D01*
X100450Y-49300D01*
X99512Y-49300D01*
X99450Y-49362D01*
X99449Y-50099D01*
X99487Y-50191D01*
X99558Y-50261D01*
X99650Y-50299D01*
X99749Y-50300D01*
X100387Y-50300D01*
X100450Y-50237D01*
X100450Y-50549D01*
X100292Y-50549D01*
X99906Y-50709D01*
X99610Y-51004D01*
X99450Y-51390D01*
X99449Y-51807D01*
X99609Y-52194D01*
X99864Y-52450D01*
X98572Y-52450D01*
X98594Y-52394D01*
X98595Y-52295D01*
X98595Y-51605D01*
X98557Y-51513D01*
X98543Y-51500D01*
X98556Y-51486D01*
X98594Y-51394D01*
X98595Y-51295D01*
X98595Y-50704D01*
X98594Y-50605D01*
X98556Y-50513D01*
X98486Y-50442D01*
X98394Y-50404D01*
X98112Y-50405D01*
X98050Y-50467D01*
X98050Y-50950D01*
X98532Y-50950D01*
X98595Y-50887D01*
X98595Y-50704D01*
X98595Y-51295D01*
X98595Y-51112D01*
X98532Y-51050D01*
X98050Y-51050D01*
X98050Y-51057D01*
X97950Y-51057D01*
X97950Y-51050D01*
X97942Y-51050D01*
X97942Y-50950D01*
X97950Y-50950D01*
X97950Y-50467D01*
X97887Y-50405D01*
X97605Y-50404D01*
X97550Y-50427D01*
X97550Y-47322D01*
X97605Y-47344D01*
X97704Y-47345D01*
X98394Y-47345D01*
X98486Y-47307D01*
X98556Y-47236D01*
X98594Y-47144D01*
X98595Y-47045D01*
X98595Y-46355D01*
X98557Y-46263D01*
X98486Y-46193D01*
X98394Y-46155D01*
X98295Y-46154D01*
X97605Y-46154D01*
X97550Y-46177D01*
X97550Y-44822D01*
X97605Y-44844D01*
X97704Y-44845D01*
X98394Y-44845D01*
X98486Y-44807D01*
X98556Y-44736D01*
X98594Y-44644D01*
X98595Y-44545D01*
X98595Y-43855D01*
X98557Y-43763D01*
X98486Y-43693D01*
X98394Y-43655D01*
X98295Y-43654D01*
X97605Y-43654D01*
X97550Y-43677D01*
X97550Y-43300D01*
X99781Y-43300D01*
X99742Y-43338D01*
X99704Y-43430D01*
X99705Y-43687D01*
X99767Y-43750D01*
X100200Y-43750D01*
X100200Y-43742D01*
X100300Y-43742D01*
X100300Y-43750D01*
X100732Y-43750D01*
X100795Y-43687D01*
X100795Y-43430D01*
X100757Y-43338D01*
X100718Y-43300D01*
X105281Y-43300D01*
X105242Y-43338D01*
X105204Y-43430D01*
X105205Y-43687D01*
X105267Y-43750D01*
X105700Y-43750D01*
X105700Y-43742D01*
X105800Y-43742D01*
X105800Y-43750D01*
X106232Y-43750D01*
X106295Y-43687D01*
X106295Y-43430D01*
X106257Y-43338D01*
X106218Y-43300D01*
X108450Y-43300D01*
X108450Y-43677D01*
X108394Y-43655D01*
X108295Y-43654D01*
X107605Y-43654D01*
X107513Y-43692D01*
X107443Y-43763D01*
X107405Y-43855D01*
X107404Y-43954D01*
X107404Y-44644D01*
X107442Y-44736D01*
X107513Y-44806D01*
X107605Y-44844D01*
X107704Y-44845D01*
X108394Y-44845D01*
X108450Y-44822D01*
X108450Y-45201D01*
X108436Y-45173D01*
X108278Y-45031D01*
X108134Y-44971D01*
X108050Y-45020D01*
X108050Y-45450D01*
X108057Y-45450D01*
X108057Y-45550D01*
X108050Y-45550D01*
X108050Y-45979D01*
X108134Y-46028D01*
X108278Y-45968D01*
X108436Y-45826D01*
X108450Y-45798D01*
X108450Y-49200D01*
X108385Y-49103D01*
X108208Y-48985D01*
X108000Y-48944D01*
X107950Y-48954D01*
X107950Y-45979D01*
X107950Y-45550D01*
X107950Y-45450D01*
X107950Y-45020D01*
X107865Y-44971D01*
X107721Y-45031D01*
X107563Y-45173D01*
X107471Y-45365D01*
X107519Y-45450D01*
X107950Y-45450D01*
X107950Y-45550D01*
X107519Y-45550D01*
X107471Y-45634D01*
X107563Y-45826D01*
X107721Y-45968D01*
X107865Y-46028D01*
X107950Y-45979D01*
X107950Y-48954D01*
X107791Y-48985D01*
X107614Y-49103D01*
X107496Y-49280D01*
X107455Y-49489D01*
X107455Y-49510D01*
X107496Y-49719D01*
X107614Y-49896D01*
X107791Y-50014D01*
X108000Y-50055D01*
X108208Y-50014D01*
X108385Y-49896D01*
X108450Y-49799D01*
X108450Y-50427D01*
X108450Y-50427D01*
G37*
G54D19*
X108450Y-50427D02*
X108394Y-50404D01*
X108112Y-50405D01*
X108050Y-50467D01*
X108050Y-50950D01*
X108057Y-50950D01*
X108057Y-51050D01*
X108050Y-51050D01*
X108050Y-51057D01*
X107950Y-51057D01*
X107950Y-51050D01*
X107950Y-50950D01*
X107950Y-50467D01*
X107887Y-50405D01*
X107605Y-50404D01*
X107513Y-50442D01*
X107443Y-50513D01*
X107405Y-50605D01*
X107404Y-50704D01*
X107405Y-50887D01*
X107467Y-50950D01*
X107950Y-50950D01*
X107950Y-51050D01*
X107467Y-51050D01*
X107405Y-51112D01*
X107404Y-51295D01*
X107405Y-51394D01*
X107443Y-51486D01*
X107456Y-51500D01*
X107443Y-51513D01*
X107405Y-51605D01*
X107404Y-51704D01*
X107404Y-52394D01*
X107427Y-52450D01*
X106845Y-52450D01*
X106845Y-49795D01*
X106845Y-49105D01*
X106807Y-49013D01*
X106736Y-48943D01*
X106679Y-48919D01*
X106799Y-48739D01*
X106845Y-48511D01*
X106845Y-48488D01*
X106799Y-48260D01*
X106795Y-48253D01*
X106795Y-47594D01*
X106795Y-46905D01*
X106757Y-46813D01*
X106686Y-46743D01*
X106594Y-46705D01*
X106547Y-46705D01*
X106635Y-46646D01*
X106753Y-46469D01*
X106795Y-46260D01*
X106795Y-46239D01*
X106753Y-46030D01*
X106635Y-45853D01*
X106458Y-45735D01*
X106295Y-45703D01*
X106295Y-45220D01*
X106295Y-44580D01*
X106295Y-44169D01*
X106295Y-43912D01*
X106232Y-43850D01*
X105800Y-43850D01*
X105800Y-44307D01*
X105862Y-44370D01*
X105995Y-44370D01*
X106094Y-44369D01*
X106186Y-44331D01*
X106257Y-44261D01*
X106295Y-44169D01*
X106295Y-44580D01*
X106257Y-44488D01*
X106186Y-44418D01*
X106094Y-44380D01*
X105995Y-44379D01*
X105700Y-44379D01*
X105700Y-44307D01*
X105700Y-43850D01*
X105267Y-43850D01*
X105205Y-43912D01*
X105204Y-44169D01*
X105242Y-44261D01*
X105313Y-44331D01*
X105405Y-44369D01*
X105504Y-44370D01*
X105637Y-44370D01*
X105700Y-44307D01*
X105700Y-44379D01*
X105405Y-44379D01*
X105313Y-44417D01*
X105243Y-44488D01*
X105205Y-44580D01*
X105204Y-44679D01*
X105204Y-45319D01*
X105242Y-45411D01*
X105313Y-45481D01*
X105405Y-45519D01*
X105504Y-45520D01*
X106094Y-45520D01*
X106186Y-45482D01*
X106256Y-45411D01*
X106294Y-45319D01*
X106295Y-45220D01*
X106295Y-45703D01*
X106250Y-45694D01*
X106041Y-45735D01*
X105864Y-45853D01*
X105746Y-46030D01*
X105705Y-46239D01*
X105705Y-46260D01*
X105746Y-46469D01*
X105864Y-46646D01*
X105952Y-46705D01*
X105905Y-46705D01*
X105813Y-46743D01*
X105742Y-46813D01*
X105704Y-46905D01*
X105705Y-47137D01*
X105767Y-47200D01*
X106200Y-47200D01*
X106200Y-47192D01*
X106300Y-47192D01*
X106300Y-47200D01*
X106732Y-47200D01*
X106795Y-47137D01*
X106795Y-46905D01*
X106795Y-47594D01*
X106795Y-47362D01*
X106732Y-47300D01*
X106300Y-47300D01*
X106300Y-47732D01*
X106362Y-47795D01*
X106495Y-47795D01*
X106594Y-47794D01*
X106686Y-47756D01*
X106757Y-47686D01*
X106795Y-47594D01*
X106795Y-48253D01*
X106670Y-48067D01*
X106477Y-47938D01*
X106250Y-47893D01*
X106200Y-47903D01*
X106200Y-47732D01*
X106200Y-47300D01*
X105767Y-47300D01*
X105705Y-47362D01*
X105704Y-47594D01*
X105742Y-47686D01*
X105813Y-47756D01*
X105905Y-47794D01*
X106004Y-47795D01*
X106137Y-47795D01*
X106200Y-47732D01*
X106200Y-47903D01*
X106022Y-47938D01*
X105829Y-48067D01*
X105700Y-48260D01*
X105655Y-48488D01*
X105655Y-48511D01*
X105700Y-48739D01*
X105820Y-48919D01*
X105763Y-48942D01*
X105693Y-49013D01*
X105655Y-49105D01*
X105654Y-49204D01*
X105654Y-49894D01*
X105692Y-49986D01*
X105763Y-50056D01*
X105855Y-50094D01*
X105954Y-50095D01*
X106644Y-50095D01*
X106736Y-50057D01*
X106806Y-49986D01*
X106844Y-49894D01*
X106845Y-49795D01*
X106845Y-52450D01*
X106572Y-52450D01*
X106594Y-52394D01*
X106595Y-52295D01*
X106595Y-51704D01*
X106594Y-51605D01*
X106556Y-51513D01*
X106486Y-51442D01*
X106394Y-51404D01*
X106112Y-51405D01*
X106050Y-51467D01*
X106050Y-51950D01*
X106532Y-51950D01*
X106595Y-51887D01*
X106595Y-51704D01*
X106595Y-52295D01*
X106595Y-52112D01*
X106532Y-52050D01*
X106050Y-52050D01*
X106050Y-52057D01*
X105950Y-52057D01*
X105950Y-52050D01*
X105950Y-51950D01*
X105950Y-51467D01*
X105887Y-51405D01*
X105605Y-51404D01*
X105513Y-51442D01*
X105443Y-51513D01*
X105405Y-51605D01*
X105404Y-51704D01*
X105405Y-51887D01*
X105467Y-51950D01*
X105950Y-51950D01*
X105950Y-52050D01*
X105467Y-52050D01*
X105405Y-52112D01*
X105404Y-52295D01*
X105405Y-52394D01*
X105427Y-52450D01*
X105072Y-52450D01*
X105094Y-52394D01*
X105095Y-52295D01*
X105095Y-51704D01*
X105094Y-51605D01*
X105056Y-51513D01*
X104986Y-51442D01*
X104894Y-51404D01*
X104612Y-51405D01*
X104595Y-51422D01*
X104595Y-45011D01*
X104595Y-44988D01*
X104549Y-44760D01*
X104420Y-44567D01*
X104227Y-44438D01*
X104000Y-44393D01*
X103772Y-44438D01*
X103579Y-44567D01*
X103499Y-44686D01*
X103420Y-44567D01*
X103227Y-44438D01*
X103000Y-44393D01*
X102772Y-44438D01*
X102579Y-44567D01*
X102557Y-44513D01*
X102486Y-44443D01*
X102394Y-44405D01*
X102295Y-44404D01*
X102112Y-44405D01*
X102050Y-44467D01*
X102050Y-44950D01*
X102057Y-44950D01*
X102057Y-45050D01*
X102050Y-45050D01*
X102050Y-45532D01*
X102112Y-45595D01*
X102295Y-45595D01*
X102394Y-45594D01*
X102486Y-45556D01*
X102557Y-45486D01*
X102579Y-45432D01*
X102772Y-45561D01*
X103000Y-45606D01*
X103227Y-45561D01*
X103420Y-45432D01*
X103500Y-45313D01*
X103579Y-45432D01*
X103772Y-45561D01*
X104000Y-45606D01*
X104227Y-45561D01*
X104420Y-45432D01*
X104549Y-45239D01*
X104595Y-45011D01*
X104595Y-51422D01*
X104550Y-51467D01*
X104550Y-51950D01*
X105032Y-51950D01*
X105095Y-51887D01*
X105095Y-51704D01*
X105095Y-52295D01*
X105095Y-52112D01*
X105032Y-52050D01*
X104550Y-52050D01*
X104550Y-52057D01*
X104450Y-52057D01*
X104450Y-52050D01*
X104442Y-52050D01*
X104442Y-51950D01*
X104450Y-51950D01*
X104450Y-51467D01*
X104387Y-51405D01*
X104345Y-51404D01*
X104345Y-50545D01*
X104345Y-49855D01*
X104345Y-49855D01*
X104345Y-46261D01*
X104345Y-46238D01*
X104299Y-46010D01*
X104170Y-45817D01*
X103977Y-45688D01*
X103750Y-45643D01*
X103522Y-45688D01*
X103329Y-45817D01*
X103200Y-46010D01*
X103155Y-46238D01*
X103155Y-46261D01*
X103200Y-46489D01*
X103329Y-46682D01*
X103522Y-46811D01*
X103750Y-46856D01*
X103977Y-46811D01*
X104170Y-46682D01*
X104299Y-46489D01*
X104345Y-46261D01*
X104345Y-49855D01*
X104307Y-49763D01*
X104236Y-49693D01*
X104144Y-49655D01*
X104045Y-49654D01*
X103355Y-49654D01*
X103263Y-49692D01*
X103193Y-49763D01*
X103179Y-49795D01*
X102945Y-49560D01*
X102559Y-49400D01*
X102142Y-49399D01*
X101950Y-49479D01*
X101950Y-45532D01*
X101950Y-45050D01*
X101950Y-44950D01*
X101950Y-44467D01*
X101887Y-44405D01*
X101704Y-44404D01*
X101605Y-44405D01*
X101513Y-44443D01*
X101442Y-44513D01*
X101404Y-44605D01*
X101405Y-44887D01*
X101467Y-44950D01*
X101950Y-44950D01*
X101950Y-45050D01*
X101467Y-45050D01*
X101405Y-45112D01*
X101404Y-45394D01*
X101442Y-45486D01*
X101513Y-45556D01*
X101605Y-45594D01*
X101704Y-45595D01*
X101887Y-45595D01*
X101950Y-45532D01*
X101950Y-49479D01*
X101756Y-49559D01*
X101550Y-49764D01*
X101550Y-48400D01*
X101512Y-48308D01*
X101441Y-48238D01*
X101349Y-48200D01*
X101250Y-48199D01*
X100795Y-48199D01*
X100795Y-45220D01*
X100795Y-44580D01*
X100795Y-44169D01*
X100795Y-43912D01*
X100732Y-43850D01*
X100300Y-43850D01*
X100300Y-44307D01*
X100362Y-44370D01*
X100495Y-44370D01*
X100594Y-44369D01*
X100686Y-44331D01*
X100757Y-44261D01*
X100795Y-44169D01*
X100795Y-44580D01*
X100757Y-44488D01*
X100686Y-44418D01*
X100594Y-44380D01*
X100495Y-44379D01*
X100200Y-44379D01*
X100200Y-44307D01*
X100200Y-43850D01*
X99767Y-43850D01*
X99705Y-43912D01*
X99704Y-44169D01*
X99742Y-44261D01*
X99813Y-44331D01*
X99905Y-44369D01*
X100004Y-44370D01*
X100137Y-44370D01*
X100200Y-44307D01*
X100200Y-44379D01*
X99905Y-44379D01*
X99813Y-44417D01*
X99743Y-44488D01*
X99705Y-44580D01*
X99704Y-44679D01*
X99704Y-45319D01*
X99742Y-45411D01*
X99813Y-45481D01*
X99905Y-45519D01*
X100004Y-45520D01*
X100594Y-45520D01*
X100686Y-45482D01*
X100756Y-45411D01*
X100794Y-45319D01*
X100795Y-45220D01*
X100795Y-48199D01*
X100612Y-48200D01*
X100550Y-48262D01*
X100550Y-49200D01*
X101487Y-49200D01*
X101550Y-49137D01*
X101550Y-48400D01*
X101550Y-49764D01*
X101550Y-49764D01*
X101550Y-49362D01*
X101487Y-49300D01*
X100550Y-49300D01*
X100550Y-50237D01*
X100612Y-50300D01*
X101250Y-50300D01*
X101300Y-50299D01*
X101299Y-50657D01*
X101459Y-51044D01*
X101754Y-51339D01*
X102140Y-51499D01*
X102557Y-51500D01*
X102944Y-51340D01*
X103239Y-51045D01*
X103327Y-50833D01*
X103355Y-50844D01*
X103454Y-50845D01*
X104144Y-50845D01*
X104236Y-50807D01*
X104306Y-50736D01*
X104344Y-50644D01*
X104345Y-50545D01*
X104345Y-51404D01*
X104105Y-51404D01*
X104013Y-51442D01*
X103943Y-51513D01*
X103917Y-51575D01*
X103837Y-51495D01*
X103618Y-51405D01*
X103382Y-51404D01*
X103163Y-51495D01*
X102995Y-51662D01*
X102905Y-51881D01*
X102904Y-52117D01*
X102995Y-52336D01*
X103108Y-52450D01*
X101134Y-52450D01*
X101389Y-52195D01*
X101549Y-51809D01*
X101550Y-51392D01*
X101390Y-51006D01*
X101095Y-50710D01*
X100709Y-50550D01*
X100450Y-50549D01*
X100450Y-50237D01*
X100450Y-49300D01*
X100450Y-49200D01*
X100450Y-48262D01*
X100387Y-48200D01*
X100295Y-48199D01*
X100295Y-47594D01*
X100295Y-46905D01*
X100257Y-46813D01*
X100186Y-46743D01*
X100094Y-46705D01*
X100047Y-46705D01*
X100135Y-46646D01*
X100253Y-46469D01*
X100295Y-46260D01*
X100295Y-46239D01*
X100253Y-46030D01*
X100135Y-45853D01*
X99958Y-45735D01*
X99750Y-45694D01*
X99541Y-45735D01*
X99364Y-45853D01*
X99246Y-46030D01*
X99205Y-46239D01*
X99205Y-46260D01*
X99246Y-46469D01*
X99364Y-46646D01*
X99452Y-46705D01*
X99405Y-46705D01*
X99313Y-46743D01*
X99242Y-46813D01*
X99204Y-46905D01*
X99205Y-47137D01*
X99267Y-47200D01*
X99700Y-47200D01*
X99700Y-47192D01*
X99800Y-47192D01*
X99800Y-47200D01*
X100232Y-47200D01*
X100295Y-47137D01*
X100295Y-46905D01*
X100295Y-47594D01*
X100295Y-47362D01*
X100232Y-47300D01*
X99800Y-47300D01*
X99800Y-47732D01*
X99862Y-47795D01*
X99995Y-47795D01*
X100094Y-47794D01*
X100186Y-47756D01*
X100257Y-47686D01*
X100295Y-47594D01*
X100295Y-48199D01*
X99749Y-48199D01*
X99700Y-48200D01*
X99700Y-47732D01*
X99700Y-47300D01*
X99267Y-47300D01*
X99205Y-47362D01*
X99204Y-47594D01*
X99242Y-47686D01*
X99313Y-47756D01*
X99405Y-47794D01*
X99504Y-47795D01*
X99637Y-47795D01*
X99700Y-47732D01*
X99700Y-48200D01*
X99650Y-48200D01*
X99558Y-48238D01*
X99487Y-48308D01*
X99449Y-48400D01*
X99450Y-49137D01*
X99512Y-49200D01*
X100450Y-49200D01*
X100450Y-49300D01*
X99512Y-49300D01*
X99450Y-49362D01*
X99449Y-50099D01*
X99487Y-50191D01*
X99558Y-50261D01*
X99650Y-50299D01*
X99749Y-50300D01*
X100387Y-50300D01*
X100450Y-50237D01*
X100450Y-50549D01*
X100292Y-50549D01*
X99906Y-50709D01*
X99610Y-51004D01*
X99450Y-51390D01*
X99449Y-51807D01*
X99609Y-52194D01*
X99864Y-52450D01*
X98572Y-52450D01*
X98594Y-52394D01*
X98595Y-52295D01*
X98595Y-51605D01*
X98557Y-51513D01*
X98543Y-51500D01*
X98556Y-51486D01*
X98594Y-51394D01*
X98595Y-51295D01*
X98595Y-50704D01*
X98594Y-50605D01*
X98556Y-50513D01*
X98486Y-50442D01*
X98394Y-50404D01*
X98112Y-50405D01*
X98050Y-50467D01*
X98050Y-50950D01*
X98532Y-50950D01*
X98595Y-50887D01*
X98595Y-50704D01*
X98595Y-51295D01*
X98595Y-51112D01*
X98532Y-51050D01*
X98050Y-51050D01*
X98050Y-51057D01*
X97950Y-51057D01*
X97950Y-51050D01*
X97942Y-51050D01*
X97942Y-50950D01*
X97950Y-50950D01*
X97950Y-50467D01*
X97887Y-50405D01*
X97605Y-50404D01*
X97550Y-50427D01*
X97550Y-47322D01*
X97605Y-47344D01*
X97704Y-47345D01*
X98394Y-47345D01*
X98486Y-47307D01*
X98556Y-47236D01*
X98594Y-47144D01*
X98595Y-47045D01*
X98595Y-46355D01*
X98557Y-46263D01*
X98486Y-46193D01*
X98394Y-46155D01*
X98295Y-46154D01*
X97605Y-46154D01*
X97550Y-46177D01*
X97550Y-44822D01*
X97605Y-44844D01*
X97704Y-44845D01*
X98394Y-44845D01*
X98486Y-44807D01*
X98556Y-44736D01*
X98594Y-44644D01*
X98595Y-44545D01*
X98595Y-43855D01*
X98557Y-43763D01*
X98486Y-43693D01*
X98394Y-43655D01*
X98295Y-43654D01*
X97605Y-43654D01*
X97550Y-43677D01*
X97550Y-43300D01*
X99781Y-43300D01*
X99742Y-43338D01*
X99704Y-43430D01*
X99705Y-43687D01*
X99767Y-43750D01*
X100200Y-43750D01*
X100200Y-43742D01*
X100300Y-43742D01*
X100300Y-43750D01*
X100732Y-43750D01*
X100795Y-43687D01*
X100795Y-43430D01*
X100757Y-43338D01*
X100718Y-43300D01*
X105281Y-43300D01*
X105242Y-43338D01*
X105204Y-43430D01*
X105205Y-43687D01*
X105267Y-43750D01*
X105700Y-43750D01*
X105700Y-43742D01*
X105800Y-43742D01*
X105800Y-43750D01*
X106232Y-43750D01*
X106295Y-43687D01*
X106295Y-43430D01*
X106257Y-43338D01*
X106218Y-43300D01*
X108450Y-43300D01*
X108450Y-43677D01*
X108394Y-43655D01*
X108295Y-43654D01*
X107605Y-43654D01*
X107513Y-43692D01*
X107443Y-43763D01*
X107405Y-43855D01*
X107404Y-43954D01*
X107404Y-44644D01*
X107442Y-44736D01*
X107513Y-44806D01*
X107605Y-44844D01*
X107704Y-44845D01*
X108394Y-44845D01*
X108450Y-44822D01*
X108450Y-45201D01*
X108436Y-45173D01*
X108278Y-45031D01*
X108134Y-44971D01*
X108050Y-45020D01*
X108050Y-45450D01*
X108057Y-45450D01*
X108057Y-45550D01*
X108050Y-45550D01*
X108050Y-45979D01*
X108134Y-46028D01*
X108278Y-45968D01*
X108436Y-45826D01*
X108450Y-45798D01*
X108450Y-49200D01*
X108385Y-49103D01*
X108208Y-48985D01*
X108000Y-48944D01*
X107950Y-48954D01*
X107950Y-45979D01*
X107950Y-45550D01*
X107950Y-45450D01*
X107950Y-45020D01*
X107865Y-44971D01*
X107721Y-45031D01*
X107563Y-45173D01*
X107471Y-45365D01*
X107519Y-45450D01*
X107950Y-45450D01*
X107950Y-45550D01*
X107519Y-45550D01*
X107471Y-45634D01*
X107563Y-45826D01*
X107721Y-45968D01*
X107865Y-46028D01*
X107950Y-45979D01*
X107950Y-48954D01*
X107791Y-48985D01*
X107614Y-49103D01*
X107496Y-49280D01*
X107455Y-49489D01*
X107455Y-49510D01*
X107496Y-49719D01*
X107614Y-49896D01*
X107791Y-50014D01*
X108000Y-50055D01*
X108208Y-50014D01*
X108385Y-49896D01*
X108450Y-49799D01*
X108450Y-50427D01*
M02*
