G04 (created by PCBNEW (22-Jun-2014 BZR 4027)-stable) date Sun 09 Jul 2017 03:14:30 PM CDT*
%MOIN*%
G04 Gerber Fmt 3.4, Leading zero omitted, Abs format*
%FSLAX34Y34*%
G01*
G70*
G90*
G04 APERTURE LIST*
%ADD10C,0.00590551*%
%ADD11C,0.008*%
%ADD12C,0.0055*%
%ADD13C,0.0001*%
G04 APERTURE END LIST*
G54D10*
G54D11*
X99161Y-44942D02*
X98761Y-44942D01*
X99161Y-45171D01*
X98761Y-45171D01*
X99142Y-45514D02*
X99161Y-45476D01*
X99161Y-45400D01*
X99142Y-45361D01*
X99104Y-45342D01*
X98952Y-45342D01*
X98914Y-45361D01*
X98895Y-45400D01*
X98895Y-45476D01*
X98914Y-45514D01*
X98952Y-45533D01*
X98990Y-45533D01*
X99028Y-45342D01*
X98895Y-45876D02*
X99219Y-45876D01*
X99257Y-45857D01*
X99276Y-45838D01*
X99295Y-45800D01*
X99295Y-45742D01*
X99276Y-45704D01*
X99142Y-45876D02*
X99161Y-45838D01*
X99161Y-45761D01*
X99142Y-45723D01*
X99123Y-45704D01*
X99085Y-45685D01*
X98971Y-45685D01*
X98933Y-45704D01*
X98914Y-45723D01*
X98895Y-45761D01*
X98895Y-45838D01*
X98914Y-45876D01*
X99161Y-46238D02*
X98952Y-46238D01*
X98914Y-46219D01*
X98895Y-46180D01*
X98895Y-46104D01*
X98914Y-46066D01*
X99142Y-46238D02*
X99161Y-46200D01*
X99161Y-46104D01*
X99142Y-46066D01*
X99104Y-46047D01*
X99066Y-46047D01*
X99028Y-46066D01*
X99009Y-46104D01*
X99009Y-46200D01*
X98990Y-46238D01*
X98895Y-46371D02*
X98895Y-46523D01*
X98761Y-46428D02*
X99104Y-46428D01*
X99142Y-46447D01*
X99161Y-46485D01*
X99161Y-46523D01*
X99161Y-46657D02*
X98895Y-46657D01*
X98761Y-46657D02*
X98780Y-46638D01*
X98800Y-46657D01*
X98780Y-46676D01*
X98761Y-46657D01*
X98800Y-46657D01*
X98895Y-46809D02*
X99161Y-46904D01*
X98895Y-47000D01*
X99142Y-47304D02*
X99161Y-47266D01*
X99161Y-47190D01*
X99142Y-47152D01*
X99104Y-47133D01*
X98952Y-47133D01*
X98914Y-47152D01*
X98895Y-47190D01*
X98895Y-47266D01*
X98914Y-47304D01*
X98952Y-47323D01*
X98990Y-47323D01*
X99028Y-47133D01*
X99142Y-47780D02*
X99161Y-47819D01*
X99161Y-47895D01*
X99142Y-47933D01*
X99104Y-47952D01*
X99085Y-47952D01*
X99047Y-47933D01*
X99028Y-47895D01*
X99028Y-47838D01*
X99009Y-47800D01*
X98971Y-47780D01*
X98952Y-47780D01*
X98914Y-47800D01*
X98895Y-47838D01*
X98895Y-47895D01*
X98914Y-47933D01*
X98895Y-48295D02*
X99161Y-48295D01*
X98895Y-48123D02*
X99104Y-48123D01*
X99142Y-48142D01*
X99161Y-48180D01*
X99161Y-48238D01*
X99142Y-48276D01*
X99123Y-48295D01*
X98895Y-48485D02*
X99295Y-48485D01*
X98914Y-48485D02*
X98895Y-48523D01*
X98895Y-48600D01*
X98914Y-48638D01*
X98933Y-48657D01*
X98971Y-48676D01*
X99085Y-48676D01*
X99123Y-48657D01*
X99142Y-48638D01*
X99161Y-48600D01*
X99161Y-48523D01*
X99142Y-48485D01*
X98895Y-48847D02*
X99295Y-48847D01*
X98914Y-48847D02*
X98895Y-48885D01*
X98895Y-48961D01*
X98914Y-49000D01*
X98933Y-49019D01*
X98971Y-49038D01*
X99085Y-49038D01*
X99123Y-49019D01*
X99142Y-49000D01*
X99161Y-48961D01*
X99161Y-48885D01*
X99142Y-48847D01*
X99161Y-49266D02*
X99142Y-49228D01*
X99104Y-49209D01*
X98761Y-49209D01*
X98895Y-49380D02*
X99161Y-49476D01*
X98895Y-49571D02*
X99161Y-49476D01*
X99257Y-49438D01*
X99276Y-49419D01*
X99295Y-49380D01*
X99314Y-50142D02*
X99295Y-50123D01*
X99238Y-50085D01*
X99200Y-50066D01*
X99142Y-50047D01*
X99047Y-50028D01*
X98971Y-50028D01*
X98876Y-50047D01*
X98819Y-50066D01*
X98780Y-50085D01*
X98723Y-50123D01*
X98704Y-50142D01*
X98895Y-50257D02*
X99161Y-50352D01*
X98895Y-50447D01*
X99161Y-50809D02*
X99161Y-50580D01*
X99161Y-50695D02*
X98761Y-50695D01*
X98819Y-50657D01*
X98857Y-50619D01*
X98876Y-50580D01*
X99314Y-50942D02*
X99295Y-50961D01*
X99238Y-50999D01*
X99200Y-51019D01*
X99142Y-51038D01*
X99047Y-51057D01*
X98971Y-51057D01*
X98876Y-51038D01*
X98819Y-51019D01*
X98780Y-50999D01*
X98723Y-50961D01*
X98704Y-50942D01*
G54D12*
X107027Y-43445D02*
X107250Y-43445D01*
X107276Y-43432D01*
X107289Y-43419D01*
X107302Y-43393D01*
X107302Y-43354D01*
X107289Y-43327D01*
X107198Y-43445D02*
X107211Y-43419D01*
X107211Y-43367D01*
X107198Y-43341D01*
X107185Y-43327D01*
X107158Y-43314D01*
X107080Y-43314D01*
X107054Y-43327D01*
X107041Y-43341D01*
X107027Y-43367D01*
X107027Y-43419D01*
X107041Y-43445D01*
X107211Y-43576D02*
X107027Y-43576D01*
X106936Y-43576D02*
X106949Y-43563D01*
X106962Y-43576D01*
X106949Y-43589D01*
X106936Y-43576D01*
X106962Y-43576D01*
X107027Y-43668D02*
X107027Y-43773D01*
X106936Y-43707D02*
X107172Y-43707D01*
X107198Y-43720D01*
X107211Y-43747D01*
X107211Y-43773D01*
X107211Y-43864D02*
X106936Y-43864D01*
X107211Y-43982D02*
X107067Y-43982D01*
X107041Y-43969D01*
X107027Y-43943D01*
X107027Y-43904D01*
X107041Y-43877D01*
X107054Y-43864D01*
X107027Y-44231D02*
X107211Y-44231D01*
X107027Y-44113D02*
X107172Y-44113D01*
X107198Y-44126D01*
X107211Y-44152D01*
X107211Y-44192D01*
X107198Y-44218D01*
X107185Y-44231D01*
X107211Y-44362D02*
X106936Y-44362D01*
X107041Y-44362D02*
X107027Y-44388D01*
X107027Y-44441D01*
X107041Y-44467D01*
X107054Y-44480D01*
X107080Y-44493D01*
X107158Y-44493D01*
X107185Y-44480D01*
X107198Y-44467D01*
X107211Y-44441D01*
X107211Y-44388D01*
X107198Y-44362D01*
X107185Y-44611D02*
X107198Y-44624D01*
X107211Y-44611D01*
X107198Y-44598D01*
X107185Y-44611D01*
X107211Y-44611D01*
X107198Y-44860D02*
X107211Y-44833D01*
X107211Y-44781D01*
X107198Y-44755D01*
X107185Y-44742D01*
X107158Y-44729D01*
X107080Y-44729D01*
X107054Y-44742D01*
X107041Y-44755D01*
X107027Y-44781D01*
X107027Y-44833D01*
X107041Y-44860D01*
X107211Y-45017D02*
X107198Y-44991D01*
X107185Y-44977D01*
X107158Y-44964D01*
X107080Y-44964D01*
X107054Y-44977D01*
X107041Y-44991D01*
X107027Y-45017D01*
X107027Y-45056D01*
X107041Y-45082D01*
X107054Y-45095D01*
X107080Y-45108D01*
X107158Y-45108D01*
X107185Y-45095D01*
X107198Y-45082D01*
X107211Y-45056D01*
X107211Y-45017D01*
X107211Y-45226D02*
X107027Y-45226D01*
X107054Y-45226D02*
X107041Y-45239D01*
X107027Y-45266D01*
X107027Y-45305D01*
X107041Y-45331D01*
X107067Y-45344D01*
X107211Y-45344D01*
X107067Y-45344D02*
X107041Y-45357D01*
X107027Y-45383D01*
X107027Y-45423D01*
X107041Y-45449D01*
X107067Y-45462D01*
X107211Y-45462D01*
X106923Y-45789D02*
X107276Y-45554D01*
X107027Y-45881D02*
X107302Y-45881D01*
X107041Y-45881D02*
X107027Y-45907D01*
X107027Y-45960D01*
X107041Y-45986D01*
X107054Y-45999D01*
X107080Y-46012D01*
X107158Y-46012D01*
X107185Y-45999D01*
X107198Y-45986D01*
X107211Y-45960D01*
X107211Y-45907D01*
X107198Y-45881D01*
X107198Y-46235D02*
X107211Y-46208D01*
X107211Y-46156D01*
X107198Y-46130D01*
X107172Y-46117D01*
X107067Y-46117D01*
X107041Y-46130D01*
X107027Y-46156D01*
X107027Y-46208D01*
X107041Y-46235D01*
X107067Y-46248D01*
X107093Y-46248D01*
X107119Y-46117D01*
X107027Y-46366D02*
X107302Y-46366D01*
X107041Y-46366D02*
X107027Y-46392D01*
X107027Y-46444D01*
X107041Y-46470D01*
X107054Y-46483D01*
X107080Y-46497D01*
X107158Y-46497D01*
X107185Y-46483D01*
X107198Y-46470D01*
X107211Y-46444D01*
X107211Y-46392D01*
X107198Y-46366D01*
X107211Y-46732D02*
X107067Y-46732D01*
X107041Y-46719D01*
X107027Y-46693D01*
X107027Y-46641D01*
X107041Y-46614D01*
X107198Y-46732D02*
X107211Y-46706D01*
X107211Y-46641D01*
X107198Y-46614D01*
X107172Y-46601D01*
X107145Y-46601D01*
X107119Y-46614D01*
X107106Y-46641D01*
X107106Y-46706D01*
X107093Y-46732D01*
X107198Y-46850D02*
X107211Y-46876D01*
X107211Y-46929D01*
X107198Y-46955D01*
X107172Y-46968D01*
X107158Y-46968D01*
X107132Y-46955D01*
X107119Y-46929D01*
X107119Y-46889D01*
X107106Y-46863D01*
X107080Y-46850D01*
X107067Y-46850D01*
X107041Y-46863D01*
X107027Y-46889D01*
X107027Y-46929D01*
X107041Y-46955D01*
X107211Y-47125D02*
X107198Y-47099D01*
X107172Y-47086D01*
X106936Y-47086D01*
X107211Y-47348D02*
X107067Y-47348D01*
X107041Y-47335D01*
X107027Y-47308D01*
X107027Y-47256D01*
X107041Y-47230D01*
X107198Y-47348D02*
X107211Y-47322D01*
X107211Y-47256D01*
X107198Y-47230D01*
X107172Y-47217D01*
X107145Y-47217D01*
X107119Y-47230D01*
X107106Y-47256D01*
X107106Y-47322D01*
X107093Y-47348D01*
X107211Y-47479D02*
X106936Y-47479D01*
X107041Y-47479D02*
X107027Y-47505D01*
X107027Y-47557D01*
X107041Y-47583D01*
X107054Y-47597D01*
X107080Y-47610D01*
X107158Y-47610D01*
X107185Y-47597D01*
X107198Y-47583D01*
X107211Y-47557D01*
X107211Y-47505D01*
X107198Y-47479D01*
X107198Y-47714D02*
X107211Y-47741D01*
X107211Y-47793D01*
X107198Y-47819D01*
X107172Y-47832D01*
X107158Y-47832D01*
X107132Y-47819D01*
X107119Y-47793D01*
X107119Y-47754D01*
X107106Y-47727D01*
X107080Y-47714D01*
X107067Y-47714D01*
X107041Y-47727D01*
X107027Y-47754D01*
X107027Y-47793D01*
X107041Y-47819D01*
X106923Y-48147D02*
X107276Y-47911D01*
X107211Y-48238D02*
X106936Y-48238D01*
X107041Y-48238D02*
X107027Y-48264D01*
X107027Y-48317D01*
X107041Y-48343D01*
X107054Y-48356D01*
X107080Y-48369D01*
X107158Y-48369D01*
X107185Y-48356D01*
X107198Y-48343D01*
X107211Y-48317D01*
X107211Y-48264D01*
X107198Y-48238D01*
X107211Y-48487D02*
X107027Y-48487D01*
X107080Y-48487D02*
X107054Y-48500D01*
X107041Y-48513D01*
X107027Y-48539D01*
X107027Y-48566D01*
X107198Y-48762D02*
X107211Y-48736D01*
X107211Y-48683D01*
X107198Y-48657D01*
X107172Y-48644D01*
X107067Y-48644D01*
X107041Y-48657D01*
X107027Y-48683D01*
X107027Y-48736D01*
X107041Y-48762D01*
X107067Y-48775D01*
X107093Y-48775D01*
X107119Y-48644D01*
X107211Y-49011D02*
X107067Y-49011D01*
X107041Y-48998D01*
X107027Y-48972D01*
X107027Y-48919D01*
X107041Y-48893D01*
X107198Y-49011D02*
X107211Y-48985D01*
X107211Y-48919D01*
X107198Y-48893D01*
X107172Y-48880D01*
X107145Y-48880D01*
X107119Y-48893D01*
X107106Y-48919D01*
X107106Y-48985D01*
X107093Y-49011D01*
X107211Y-49260D02*
X106936Y-49260D01*
X107198Y-49260D02*
X107211Y-49233D01*
X107211Y-49181D01*
X107198Y-49155D01*
X107185Y-49142D01*
X107158Y-49129D01*
X107080Y-49129D01*
X107054Y-49142D01*
X107041Y-49155D01*
X107027Y-49181D01*
X107027Y-49233D01*
X107041Y-49260D01*
X107211Y-49391D02*
X106936Y-49391D01*
X107041Y-49391D02*
X107027Y-49417D01*
X107027Y-49469D01*
X107041Y-49495D01*
X107054Y-49508D01*
X107080Y-49522D01*
X107158Y-49522D01*
X107185Y-49508D01*
X107198Y-49495D01*
X107211Y-49469D01*
X107211Y-49417D01*
X107198Y-49391D01*
X107211Y-49679D02*
X107198Y-49652D01*
X107185Y-49639D01*
X107158Y-49626D01*
X107080Y-49626D01*
X107054Y-49639D01*
X107041Y-49652D01*
X107027Y-49679D01*
X107027Y-49718D01*
X107041Y-49744D01*
X107054Y-49757D01*
X107080Y-49770D01*
X107158Y-49770D01*
X107185Y-49757D01*
X107198Y-49744D01*
X107211Y-49718D01*
X107211Y-49679D01*
X107211Y-50006D02*
X107067Y-50006D01*
X107041Y-49993D01*
X107027Y-49967D01*
X107027Y-49914D01*
X107041Y-49888D01*
X107198Y-50006D02*
X107211Y-49980D01*
X107211Y-49914D01*
X107198Y-49888D01*
X107172Y-49875D01*
X107145Y-49875D01*
X107119Y-49888D01*
X107106Y-49914D01*
X107106Y-49980D01*
X107093Y-50006D01*
X107211Y-50137D02*
X107027Y-50137D01*
X107080Y-50137D02*
X107054Y-50150D01*
X107041Y-50163D01*
X107027Y-50189D01*
X107027Y-50216D01*
X107211Y-50425D02*
X106936Y-50425D01*
X107198Y-50425D02*
X107211Y-50399D01*
X107211Y-50347D01*
X107198Y-50320D01*
X107185Y-50307D01*
X107158Y-50294D01*
X107080Y-50294D01*
X107054Y-50307D01*
X107041Y-50320D01*
X107027Y-50347D01*
X107027Y-50399D01*
X107041Y-50425D01*
X107106Y-50556D02*
X107106Y-50766D01*
X107211Y-50897D02*
X106936Y-50897D01*
X107211Y-51014D02*
X107067Y-51014D01*
X107041Y-51001D01*
X107027Y-50975D01*
X107027Y-50936D01*
X107041Y-50910D01*
X107054Y-50897D01*
X107198Y-51250D02*
X107211Y-51224D01*
X107211Y-51172D01*
X107198Y-51145D01*
X107172Y-51132D01*
X107067Y-51132D01*
X107041Y-51145D01*
X107027Y-51172D01*
X107027Y-51224D01*
X107041Y-51250D01*
X107067Y-51263D01*
X107093Y-51263D01*
X107119Y-51132D01*
X107211Y-51420D02*
X107198Y-51394D01*
X107172Y-51381D01*
X106936Y-51381D01*
X107027Y-51525D02*
X107302Y-51525D01*
X107041Y-51525D02*
X107027Y-51551D01*
X107027Y-51604D01*
X107041Y-51630D01*
X107054Y-51643D01*
X107080Y-51656D01*
X107158Y-51656D01*
X107185Y-51643D01*
X107198Y-51630D01*
X107211Y-51604D01*
X107211Y-51551D01*
X107198Y-51525D01*
X107198Y-51879D02*
X107211Y-51852D01*
X107211Y-51800D01*
X107198Y-51774D01*
X107172Y-51761D01*
X107067Y-51761D01*
X107041Y-51774D01*
X107027Y-51800D01*
X107027Y-51852D01*
X107041Y-51879D01*
X107067Y-51892D01*
X107093Y-51892D01*
X107119Y-51761D01*
X107211Y-52010D02*
X107027Y-52010D01*
X107080Y-52010D02*
X107054Y-52023D01*
X107041Y-52036D01*
X107027Y-52062D01*
X107027Y-52088D01*
X107198Y-52167D02*
X107211Y-52193D01*
X107211Y-52245D01*
X107198Y-52272D01*
X107172Y-52285D01*
X107158Y-52285D01*
X107132Y-52272D01*
X107119Y-52245D01*
X107119Y-52206D01*
X107106Y-52180D01*
X107080Y-52167D01*
X107067Y-52167D01*
X107041Y-52180D01*
X107027Y-52206D01*
X107027Y-52245D01*
X107041Y-52272D01*
G54D13*
G36*
X103707Y-47273D02*
X103703Y-47281D01*
X103691Y-47300D01*
X103674Y-47326D01*
X103653Y-47357D01*
X103632Y-47388D01*
X103615Y-47414D01*
X103603Y-47432D01*
X103599Y-47439D01*
X103600Y-47443D01*
X103608Y-47458D01*
X103619Y-47480D01*
X103625Y-47492D01*
X103634Y-47512D01*
X103636Y-47522D01*
X103633Y-47523D01*
X103618Y-47531D01*
X103592Y-47542D01*
X103558Y-47557D01*
X103518Y-47574D01*
X103475Y-47592D01*
X103431Y-47610D01*
X103389Y-47628D01*
X103351Y-47643D01*
X103321Y-47656D01*
X103299Y-47664D01*
X103290Y-47667D01*
X103288Y-47666D01*
X103279Y-47656D01*
X103266Y-47639D01*
X103235Y-47601D01*
X103189Y-47565D01*
X103137Y-47542D01*
X103079Y-47535D01*
X103026Y-47541D01*
X102975Y-47562D01*
X102928Y-47598D01*
X102894Y-47642D01*
X102872Y-47693D01*
X102865Y-47750D01*
X102871Y-47805D01*
X102892Y-47857D01*
X102927Y-47904D01*
X102950Y-47923D01*
X102997Y-47950D01*
X103047Y-47966D01*
X103059Y-47967D01*
X103115Y-47965D01*
X103168Y-47949D01*
X103215Y-47920D01*
X103254Y-47879D01*
X103258Y-47874D01*
X103272Y-47855D01*
X103281Y-47843D01*
X103289Y-47833D01*
X103459Y-47903D01*
X103486Y-47914D01*
X103532Y-47934D01*
X103572Y-47951D01*
X103604Y-47964D01*
X103625Y-47974D01*
X103634Y-47978D01*
X103634Y-47978D01*
X103635Y-47984D01*
X103630Y-47997D01*
X103619Y-48021D01*
X103611Y-48037D01*
X103602Y-48055D01*
X103599Y-48063D01*
X103603Y-48070D01*
X103614Y-48087D01*
X103631Y-48112D01*
X103651Y-48142D01*
X103671Y-48171D01*
X103689Y-48198D01*
X103701Y-48217D01*
X103706Y-48227D01*
X103706Y-48228D01*
X103701Y-48236D01*
X103689Y-48252D01*
X103667Y-48275D01*
X103635Y-48307D01*
X103630Y-48312D01*
X103602Y-48339D01*
X103579Y-48361D01*
X103563Y-48376D01*
X103556Y-48381D01*
X103556Y-48381D01*
X103546Y-48376D01*
X103527Y-48364D01*
X103500Y-48346D01*
X103469Y-48325D01*
X103387Y-48269D01*
X103310Y-48300D01*
X103287Y-48309D01*
X103258Y-48321D01*
X103238Y-48330D01*
X103229Y-48335D01*
X103226Y-48343D01*
X103221Y-48364D01*
X103214Y-48395D01*
X103208Y-48431D01*
X103201Y-48466D01*
X103195Y-48497D01*
X103191Y-48520D01*
X103189Y-48530D01*
X103187Y-48532D01*
X103182Y-48534D01*
X103172Y-48536D01*
X103153Y-48536D01*
X103123Y-48537D01*
X103079Y-48537D01*
X103075Y-48537D01*
X103033Y-48536D01*
X103000Y-48536D01*
X102979Y-48535D01*
X102971Y-48533D01*
X102971Y-48533D01*
X102968Y-48523D01*
X102964Y-48501D01*
X102957Y-48470D01*
X102950Y-48432D01*
X102950Y-48430D01*
X102943Y-48393D01*
X102936Y-48362D01*
X102931Y-48340D01*
X102928Y-48331D01*
X102926Y-48329D01*
X102911Y-48321D01*
X102888Y-48310D01*
X102860Y-48298D01*
X102831Y-48286D01*
X102804Y-48275D01*
X102785Y-48268D01*
X102776Y-48266D01*
X102776Y-48266D01*
X102767Y-48272D01*
X102747Y-48285D01*
X102721Y-48303D01*
X102689Y-48325D01*
X102686Y-48326D01*
X102655Y-48348D01*
X102628Y-48365D01*
X102609Y-48377D01*
X102601Y-48381D01*
X102600Y-48381D01*
X102591Y-48374D01*
X102573Y-48358D01*
X102549Y-48335D01*
X102521Y-48307D01*
X102513Y-48298D01*
X102483Y-48268D01*
X102463Y-48247D01*
X102453Y-48233D01*
X102450Y-48227D01*
X102451Y-48227D01*
X102456Y-48217D01*
X102469Y-48197D01*
X102488Y-48170D01*
X102509Y-48138D01*
X102511Y-48136D01*
X102532Y-48105D01*
X102550Y-48079D01*
X102562Y-48060D01*
X102567Y-48052D01*
X102567Y-48050D01*
X102563Y-48038D01*
X102556Y-48015D01*
X102545Y-47988D01*
X102533Y-47959D01*
X102522Y-47932D01*
X102513Y-47912D01*
X102508Y-47903D01*
X102507Y-47903D01*
X102496Y-47899D01*
X102472Y-47894D01*
X102440Y-47887D01*
X102401Y-47880D01*
X102395Y-47879D01*
X102358Y-47872D01*
X102327Y-47866D01*
X102305Y-47861D01*
X102296Y-47859D01*
X102295Y-47854D01*
X102294Y-47835D01*
X102293Y-47807D01*
X102293Y-47773D01*
X102293Y-47738D01*
X102294Y-47704D01*
X102295Y-47674D01*
X102296Y-47653D01*
X102298Y-47644D01*
X102299Y-47643D01*
X102310Y-47640D01*
X102334Y-47635D01*
X102366Y-47628D01*
X102405Y-47621D01*
X102412Y-47620D01*
X102449Y-47613D01*
X102480Y-47606D01*
X102501Y-47602D01*
X102509Y-47599D01*
X102511Y-47596D01*
X102518Y-47581D01*
X102528Y-47556D01*
X102541Y-47524D01*
X102570Y-47452D01*
X102509Y-47364D01*
X102504Y-47356D01*
X102482Y-47324D01*
X102465Y-47298D01*
X102453Y-47280D01*
X102449Y-47272D01*
X102449Y-47272D01*
X102457Y-47263D01*
X102473Y-47245D01*
X102497Y-47221D01*
X102524Y-47194D01*
X102545Y-47173D01*
X102570Y-47149D01*
X102586Y-47133D01*
X102597Y-47125D01*
X102604Y-47122D01*
X102608Y-47123D01*
X102617Y-47128D01*
X102636Y-47141D01*
X102663Y-47159D01*
X102694Y-47181D01*
X102721Y-47199D01*
X102750Y-47218D01*
X102771Y-47230D01*
X102782Y-47235D01*
X102786Y-47234D01*
X102803Y-47227D01*
X102830Y-47217D01*
X102861Y-47204D01*
X102931Y-47173D01*
X102939Y-47127D01*
X102945Y-47099D01*
X102952Y-47060D01*
X102959Y-47023D01*
X102971Y-46965D01*
X103183Y-46963D01*
X103187Y-46972D01*
X103190Y-46981D01*
X103194Y-47002D01*
X103200Y-47033D01*
X103207Y-47069D01*
X103213Y-47100D01*
X103219Y-47131D01*
X103223Y-47153D01*
X103225Y-47163D01*
X103229Y-47166D01*
X103244Y-47174D01*
X103268Y-47185D01*
X103297Y-47197D01*
X103326Y-47209D01*
X103354Y-47220D01*
X103375Y-47228D01*
X103386Y-47231D01*
X103394Y-47227D01*
X103412Y-47215D01*
X103438Y-47198D01*
X103469Y-47177D01*
X103500Y-47155D01*
X103527Y-47138D01*
X103546Y-47125D01*
X103554Y-47120D01*
X103560Y-47123D01*
X103575Y-47135D01*
X103599Y-47158D01*
X103634Y-47193D01*
X103639Y-47199D01*
X103666Y-47226D01*
X103687Y-47250D01*
X103702Y-47266D01*
X103707Y-47273D01*
X103707Y-47273D01*
G37*
M02*
